<svg width="750" height="500" viewBox="0 0 750 500" fill="none" xmlns="http://www.w3.org/2000/svg">
<path d="M622.187 93.5758C623.004 73.152 609.614 56.0334 592.281 55.3403C574.948 54.6471 560.234 70.6419 559.417 91.0656C558.601 111.489 571.99 128.608 589.323 129.301C606.657 129.994 621.37 114 622.187 93.5758Z" fill="#EBEBEB"/>
<path d="M612.64 93.35C611.75 111.95 599.34 126.75 584.03 128.56C585.67 128.959 587.344 129.2 589.03 129.28C606.36 130.17 621.2 114.34 622.18 93.92C623.16 73.5 609.91 56.24 592.58 55.35C591.069 55.2744 589.553 55.3246 588.05 55.5C602.84 59.09 613.52 74.94 612.64 93.35Z" fill="#E0E0E0"/>
<path d="M367.406 455.394C387.743 453.403 403.447 443.791 402.482 433.925C401.516 424.058 384.246 417.674 363.909 419.664C343.572 421.655 327.868 431.267 328.833 441.133C329.799 450.999 347.069 457.384 367.406 455.394Z" fill="#EBEBEB"/>
<path d="M366 450C347.44 451.47 332 446 329.26 437.47C328.967 438.412 328.826 439.394 328.84 440.38C329.01 450.32 345.64 457.08 366 455.47C386.36 453.86 402.74 444.52 402.57 434.58C402.554 433.71 402.409 432.847 402.14 432.02C399.45 440.83 384.34 448.58 366 450Z" fill="#E0E0E0"/>
<path d="M105.48 400.879C115.831 392.208 115.943 375.294 105.73 363.101C95.5166 350.907 78.8452 348.051 68.4935 356.722C58.1417 365.393 58.0296 382.307 68.243 394.5C78.4564 406.694 95.1278 409.549 105.48 400.879Z" fill="#EBEBEB"/>
<path d="M73.9996 389.8C83.3996 400.8 98.0796 404.06 108.37 397.89C107.548 398.912 106.634 399.856 105.64 400.71C95.3896 409.49 78.7196 406.8 68.4096 394.71C58.0996 382.62 58.0496 365.66 68.2996 356.88C69.1968 356.114 70.1568 355.425 71.1696 354.82C63.7796 364 64.7296 378.88 73.9996 389.8Z" fill="#E0E0E0"/>
<path d="M70.1616 254.351C70.3136 243.98 64.6888 235.488 57.5982 235.384C50.5077 235.28 44.6364 243.603 44.4843 253.974C44.3322 264.345 49.957 272.836 57.0476 272.94C64.1382 273.044 70.0095 264.721 70.1616 254.351Z" fill="#EBEBEB"/>
<path d="M48.3901 253.86C48.1801 263.31 52.7901 271.28 58.9701 272.77C58.3125 272.907 57.6414 272.967 56.9701 272.95C49.8801 272.74 44.3101 264.16 44.5401 253.79C44.7701 243.42 50.6901 235.18 57.7801 235.39C58.4006 235.407 59.0174 235.491 59.6201 235.64C53.4301 236.89 48.5901 244.51 48.3901 253.86Z" fill="#E0E0E0"/>
<path d="M659.61 338.39C654.24 348.53 656.87 360.44 665.5 364.97C674.13 369.5 685.5 364.97 690.85 354.82C696.2 344.67 693.59 332.77 684.97 328.23C676.35 323.69 665 328.24 659.61 338.39Z" fill="#EBEBEB"/>
<path d="M686.09 352.37C690.99 343.12 689.23 332.37 682.35 327.15C683.254 327.43 684.131 327.791 684.97 328.23C693.59 332.77 696.23 344.67 690.85 354.82C685.47 364.97 674.12 369.51 665.5 365C664.745 364.606 664.026 364.148 663.35 363.63C671.53 366.11 681.24 361.52 686.09 352.37Z" fill="#E0E0E0"/>
<path d="M208.893 91.94C214.158 76.9308 208.097 61.1401 195.355 56.6704C182.612 52.2006 168.015 60.7445 162.75 75.7537C157.485 90.7628 163.546 106.554 176.288 111.023C189.031 115.493 203.628 106.949 208.893 91.94Z" fill="#EBEBEB"/>
<path d="M167.9 77.4C163.21 91.11 167.9 105.4 178.5 111.07C177.205 110.887 175.93 110.585 174.69 110.17C161.9 105.84 155.69 90.17 160.85 75.08C166.01 59.99 180.53 51.34 193.32 55.66C194.435 56.0437 195.519 56.5152 196.56 57.07C184.81 55.42 172.54 63.82 167.9 77.4Z" fill="#E0E0E0"/>
<path d="M519.51 82.53L523.72 85.03C523.844 85.1068 523.944 85.2154 524.011 85.3445C524.079 85.4736 524.11 85.6185 524.101 85.7637C524.093 85.909 524.046 86.0495 523.965 86.1702C523.884 86.291 523.771 86.3876 523.64 86.45L519.18 88.68C519.04 88.7501 518.923 88.8574 518.84 88.99L516.23 93.25C516.16 93.3772 516.057 93.4833 515.932 93.5572C515.808 93.6311 515.665 93.6701 515.52 93.6701C515.375 93.6701 515.232 93.6311 515.107 93.5572C514.982 93.4833 514.88 93.3772 514.81 93.25L512.68 88.85C512.612 88.7111 512.504 88.5959 512.37 88.52L508.17 86C508.046 85.9232 507.946 85.8146 507.878 85.6855C507.811 85.5564 507.78 85.4115 507.788 85.2663C507.797 85.121 507.844 84.9805 507.925 84.8598C508.006 84.739 508.118 84.6424 508.25 84.58L512.71 82.35C512.85 82.2799 512.967 82.1726 513.05 82.04L515.65 77.79C515.721 77.663 515.825 77.5574 515.951 77.4838C516.076 77.4102 516.219 77.3715 516.365 77.3715C516.511 77.3715 516.653 77.4102 516.779 77.4838C516.905 77.5574 517.009 77.663 517.08 77.79L519.21 82.19C519.276 82.329 519.38 82.4467 519.51 82.53Z" fill="#E0E0E0"/>
<path d="M112.62 444.41L116.83 446.91C116.954 446.987 117.055 447.095 117.122 447.225C117.189 447.354 117.22 447.498 117.212 447.644C117.204 447.789 117.156 447.929 117.075 448.05C116.994 448.171 116.882 448.268 116.75 448.33L112.29 450.56C112.151 450.63 112.033 450.737 111.95 450.87L109.34 455.13C109.266 455.255 109.16 455.358 109.032 455.427C108.905 455.497 108.761 455.531 108.615 455.526C108.47 455.521 108.329 455.476 108.207 455.398C108.084 455.32 107.986 455.21 107.92 455.08L105.79 450.68C105.72 450.543 105.613 450.429 105.48 450.35L101.28 447.85C101.157 447.773 101.056 447.665 100.989 447.535C100.922 447.406 100.891 447.262 100.899 447.116C100.907 446.971 100.954 446.831 101.035 446.71C101.117 446.589 101.229 446.492 101.36 446.43L105.82 444.19C105.962 444.123 106.081 444.015 106.16 443.88L108.76 439.63C108.83 439.503 108.933 439.397 109.058 439.323C109.183 439.249 109.325 439.21 109.47 439.21C109.615 439.21 109.758 439.249 109.883 439.323C110.008 439.397 110.11 439.503 110.18 439.63L112.32 444.04C112.38 444.191 112.485 444.32 112.62 444.41V444.41Z" fill="#E0E0E0"/>
<path d="M483.76 441.44L487.97 443.94C488.094 444.017 488.194 444.125 488.261 444.255C488.328 444.384 488.36 444.528 488.351 444.674C488.343 444.819 488.296 444.959 488.215 445.08C488.134 445.201 488.021 445.298 487.89 445.36L483.43 447.6C483.288 447.667 483.169 447.775 483.09 447.91L480.48 452.16C480.41 452.287 480.307 452.393 480.182 452.467C480.058 452.541 479.915 452.58 479.77 452.58C479.625 452.58 479.482 452.541 479.357 452.467C479.233 452.393 479.13 452.287 479.06 452.16L476.93 447.75C476.86 447.613 476.752 447.499 476.62 447.42L472.42 444.92C472.296 444.843 472.196 444.735 472.128 444.605C472.061 444.476 472.03 444.332 472.038 444.186C472.047 444.041 472.094 443.901 472.175 443.78C472.256 443.659 472.368 443.562 472.5 443.5L476.96 441.27C477.1 441.2 477.217 441.093 477.3 440.96L479.9 436.7C479.971 436.573 480.075 436.467 480.201 436.394C480.326 436.32 480.469 436.281 480.615 436.281C480.761 436.281 480.903 436.32 481.029 436.394C481.155 436.467 481.259 436.573 481.33 436.7L483.46 441.1C483.525 441.24 483.629 441.358 483.76 441.44V441.44Z" fill="#E0E0E0"/>
<path d="M666.92 437.83L671.12 440.34C671.244 440.415 671.346 440.521 671.414 440.649C671.482 440.777 671.515 440.921 671.508 441.066C671.5 441.211 671.454 441.351 671.373 441.471C671.293 441.592 671.181 441.688 671.05 441.75L666.58 444C666.44 444.07 666.322 444.177 666.24 444.31L663.64 448.56C663.57 448.687 663.467 448.793 663.342 448.867C663.217 448.941 663.075 448.98 662.93 448.98C662.784 448.98 662.642 448.941 662.517 448.867C662.392 448.793 662.289 448.687 662.22 448.56L660.08 444.16C660.017 444.019 659.912 443.9 659.78 443.82L655.58 441.32C655.456 441.244 655.354 441.136 655.286 441.008C655.218 440.879 655.186 440.735 655.193 440.589C655.201 440.444 655.247 440.303 655.327 440.182C655.407 440.061 655.519 439.963 655.65 439.9L660.11 437.67C660.249 437.6 660.367 437.493 660.45 437.36L663.06 433.1C663.134 432.975 663.24 432.872 663.368 432.803C663.495 432.733 663.639 432.699 663.784 432.704C663.93 432.709 664.071 432.754 664.193 432.832C664.315 432.91 664.414 433.02 664.48 433.15L666.62 437.55C666.691 437.67 666.795 437.767 666.92 437.83V437.83Z" fill="#E0E0E0"/>
<path d="M218.21 131L222.41 133.5C222.534 133.576 222.635 133.684 222.703 133.812C222.771 133.941 222.803 134.086 222.796 134.231C222.789 134.376 222.742 134.517 222.662 134.638C222.582 134.759 222.471 134.857 222.34 134.92L217.87 137.16C217.73 137.23 217.612 137.337 217.53 137.47L214.93 141.72C214.86 141.847 214.757 141.953 214.632 142.027C214.507 142.101 214.365 142.14 214.22 142.14C214.074 142.14 213.932 142.101 213.807 142.027C213.682 141.953 213.579 141.847 213.51 141.72L211.37 137.31C211.303 137.173 211.199 137.059 211.07 136.98L206.87 134.48C206.746 134.404 206.644 134.296 206.576 134.168C206.508 134.039 206.476 133.894 206.483 133.749C206.491 133.604 206.537 133.463 206.617 133.342C206.697 133.221 206.809 133.123 206.94 133.06L211.41 130.83C211.544 130.757 211.658 130.65 211.74 130.52L214.35 126.26C214.419 126.133 214.522 126.027 214.647 125.953C214.772 125.879 214.914 125.84 215.06 125.84C215.205 125.84 215.347 125.879 215.472 125.953C215.597 126.027 215.7 126.133 215.77 126.26L217.91 130.66C217.972 130.802 218.076 130.921 218.21 131V131Z" fill="#E0E0E0"/>
<path d="M245.06 46.53L249.26 49.03C249.384 49.1068 249.484 49.2154 249.551 49.3445C249.619 49.4736 249.65 49.6185 249.641 49.7637C249.633 49.909 249.586 50.0495 249.505 50.1702C249.424 50.291 249.311 50.3876 249.18 50.45L244.72 52.69C244.578 52.7568 244.46 52.8648 244.38 53L241.78 57.25C241.709 57.377 241.605 57.4826 241.479 57.5562C241.354 57.6298 241.211 57.6685 241.065 57.6685C240.919 57.6685 240.776 57.6298 240.651 57.5562C240.525 57.4826 240.421 57.377 240.35 57.25L238.22 52.84C238.151 52.7055 238.047 52.5917 237.92 52.51L233.71 50C233.586 49.9232 233.486 49.8146 233.419 49.6855C233.351 49.5564 233.32 49.4116 233.328 49.2663C233.337 49.121 233.384 48.9805 233.465 48.8598C233.546 48.739 233.658 48.6424 233.79 48.58L238.25 46.35C238.39 46.2799 238.507 46.1726 238.59 46.04L241.2 41.78C241.27 41.6528 241.373 41.5467 241.497 41.4728C241.622 41.3989 241.765 41.3599 241.91 41.3599C242.055 41.3599 242.198 41.3989 242.322 41.4728C242.447 41.5467 242.55 41.6528 242.62 41.78L244.75 46.18C244.814 46.3263 244.922 46.4488 245.06 46.53V46.53Z" fill="#E0E0E0"/>
<path d="M108.88 83.32L111 84.59C111.065 84.6253 111.119 84.6773 111.157 84.7407C111.194 84.804 111.214 84.8763 111.214 84.95C111.214 85.0237 111.194 85.096 111.157 85.1593C111.119 85.2227 111.065 85.2747 111 85.31L108.74 86.45C108.671 86.483 108.612 86.535 108.57 86.6L107.25 88.76C107.214 88.8244 107.161 88.878 107.096 88.9153C107.032 88.9526 106.959 88.9722 106.885 88.9722C106.811 88.9722 106.738 88.9526 106.674 88.9153C106.61 88.878 106.557 88.8244 106.52 88.76L105.44 86.53C105.407 86.4604 105.355 86.4014 105.29 86.36L103.15 85.09C103.086 85.0547 103.032 85.0027 102.994 84.9393C102.956 84.876 102.937 84.8037 102.937 84.73C102.937 84.6563 102.956 84.584 102.994 84.5207C103.032 84.4573 103.086 84.4053 103.15 84.37L105.42 83.23C105.49 83.197 105.549 83.145 105.59 83.08L106.91 80.92C106.946 80.8553 106.998 80.8013 107.061 80.7637C107.124 80.7261 107.197 80.7062 107.27 80.7062C107.344 80.7062 107.416 80.7261 107.48 80.7637C107.543 80.8013 107.595 80.8553 107.63 80.92L108.72 83.15C108.753 83.2233 108.809 83.2833 108.88 83.32V83.32Z" fill="#E0E0E0"/>
<path d="M346.69 71L348.82 72.27C348.885 72.3053 348.939 72.3573 348.976 72.4207C349.014 72.484 349.034 72.5563 349.034 72.63C349.034 72.7037 349.014 72.776 348.976 72.8393C348.939 72.9027 348.885 72.9547 348.82 72.99L346.56 74.12C346.488 74.1536 346.428 74.2097 346.39 74.28L345 76.44C344.965 76.5047 344.913 76.5587 344.849 76.5963C344.786 76.6339 344.714 76.6538 344.64 76.6538C344.566 76.6538 344.494 76.6339 344.431 76.5963C344.367 76.5587 344.315 76.5047 344.28 76.44L343.2 74.21C343.167 74.1404 343.115 74.0814 343.05 74.04L340.91 72.77C340.845 72.7347 340.791 72.6827 340.754 72.6193C340.716 72.556 340.696 72.4837 340.696 72.41C340.696 72.3363 340.716 72.264 340.754 72.2007C340.791 72.1373 340.845 72.0853 340.91 72.05L343.18 70.92C343.25 70.8829 343.309 70.8277 343.35 70.76L344.67 68.6C344.705 68.5353 344.757 68.4813 344.821 68.4437C344.884 68.4061 344.956 68.3862 345.03 68.3862C345.104 68.3862 345.176 68.4061 345.239 68.4437C345.303 68.4813 345.355 68.5353 345.39 68.6L346.47 70.84C346.525 70.9152 346.602 70.9712 346.69 71V71Z" fill="#E0E0E0"/>
<path d="M544.51 57L546.65 58.27C546.714 58.3053 546.768 58.3573 546.806 58.4207C546.844 58.484 546.863 58.5563 546.863 58.63C546.863 58.7037 546.844 58.776 546.806 58.8393C546.768 58.9027 546.714 58.9547 546.65 58.99L544.38 60.12C544.31 60.1571 544.251 60.2123 544.21 60.28L542.89 62.44C542.854 62.5047 542.802 62.5587 542.739 62.5963C542.676 62.6339 542.603 62.6538 542.53 62.6538C542.456 62.6538 542.384 62.6339 542.32 62.5963C542.257 62.5587 542.205 62.5047 542.17 62.44L541.09 60.2C541.053 60.13 540.997 60.0712 540.93 60.03L538.8 58.76C538.735 58.7247 538.681 58.6727 538.643 58.6093C538.606 58.546 538.586 58.4737 538.586 58.4C538.586 58.3263 538.606 58.254 538.643 58.1907C538.681 58.1273 538.735 58.0753 538.8 58.04L541.06 56.91C541.132 56.8764 541.192 56.8203 541.23 56.75L542.56 54.59C542.595 54.5253 542.647 54.4713 542.71 54.4337C542.774 54.3961 542.846 54.3762 542.92 54.3762C542.993 54.3762 543.066 54.3961 543.129 54.4337C543.192 54.4713 543.244 54.5253 543.28 54.59L544.36 56.82C544.391 56.8933 544.443 56.9559 544.51 57V57Z" fill="#E0E0E0"/>
<path d="M681.13 63.9L683.26 65.17C683.325 65.2053 683.379 65.2573 683.416 65.3207C683.454 65.384 683.474 65.4563 683.474 65.53C683.474 65.6037 683.454 65.676 683.416 65.7393C683.379 65.8027 683.325 65.8547 683.26 65.89L681 67C680.93 67.037 680.871 67.0923 680.83 67.16L679.51 69.32C679.473 69.3844 679.42 69.438 679.356 69.4753C679.292 69.5126 679.219 69.5322 679.145 69.5322C679.071 69.5322 678.998 69.5126 678.934 69.4753C678.87 69.438 678.817 69.3844 678.78 69.32L677.7 67.08C677.667 67.0104 677.615 66.9514 677.55 66.91L675.41 65.64C675.345 65.6047 675.291 65.5527 675.254 65.4893C675.216 65.426 675.196 65.3537 675.196 65.28C675.196 65.2063 675.216 65.134 675.254 65.0707C675.291 65.0073 675.345 64.9553 675.41 64.92L677.68 63.79C677.753 63.7564 677.812 63.7003 677.85 63.63L679.17 61.47C679.205 61.4053 679.257 61.3513 679.321 61.3137C679.384 61.2761 679.456 61.2562 679.53 61.2562C679.604 61.2562 679.676 61.2761 679.739 61.3137C679.803 61.3513 679.855 61.4053 679.89 61.47L681 63.73C681.025 63.7988 681.07 63.8583 681.13 63.9V63.9Z" fill="#E0E0E0"/>
<path d="M436.94 462.83L439.44 464.29C439.515 464.333 439.577 464.395 439.62 464.469C439.663 464.544 439.686 464.629 439.686 464.715C439.686 464.801 439.663 464.886 439.62 464.961C439.577 465.035 439.515 465.097 439.44 465.14L436.81 466.48C436.728 466.524 436.658 466.59 436.61 466.67L435.09 469.2C435.047 469.275 434.985 469.337 434.911 469.38C434.836 469.423 434.751 469.446 434.665 469.446C434.579 469.446 434.494 469.423 434.42 469.38C434.345 469.337 434.283 469.275 434.24 469.2L432.96 466.6C432.916 466.523 432.855 466.458 432.78 466.41L430.27 464.95C430.195 464.909 430.133 464.848 430.089 464.774C430.045 464.7 430.022 464.616 430.022 464.53C430.022 464.444 430.045 464.36 430.089 464.286C430.133 464.212 430.195 464.151 430.27 464.11L432.9 462.76C432.982 462.72 433.052 462.657 433.1 462.58L434.62 460.04C434.663 459.965 434.725 459.903 434.8 459.86C434.874 459.817 434.959 459.794 435.045 459.794C435.131 459.794 435.216 459.817 435.291 459.86C435.365 459.903 435.427 459.965 435.47 460.04L436.75 462.64C436.792 462.722 436.858 462.788 436.94 462.83V462.83Z" fill="#E0E0E0"/>
<path d="M698.43 281.56L700.94 283.02C701.015 283.061 701.078 283.122 701.121 283.196C701.165 283.27 701.188 283.354 701.188 283.44C701.188 283.526 701.165 283.61 701.121 283.684C701.078 283.758 701.015 283.818 700.94 283.86L698.31 285.21C698.226 285.251 698.156 285.318 698.11 285.4L696.59 287.93C696.547 288.005 696.485 288.067 696.411 288.11C696.336 288.153 696.251 288.176 696.165 288.176C696.079 288.176 695.994 288.153 695.919 288.11C695.845 288.067 695.783 288.005 695.74 287.93L694.46 285.33C694.418 285.248 694.352 285.182 694.27 285.14L691.77 283.68C691.695 283.638 691.632 283.578 691.589 283.504C691.545 283.43 691.522 283.346 691.522 283.26C691.522 283.174 691.545 283.09 691.589 283.016C691.632 282.942 691.695 282.882 691.77 282.84L694.4 281.49C694.483 281.446 694.552 281.38 694.6 281.3L696.12 278.77C696.163 278.695 696.225 278.633 696.299 278.59C696.374 278.547 696.459 278.524 696.545 278.524C696.631 278.524 696.716 278.547 696.791 278.59C696.865 278.633 696.927 278.695 696.97 278.77L698.25 281.37C698.291 281.449 698.353 281.515 698.43 281.56V281.56Z" fill="#E0E0E0"/>
<path d="M53.0497 303.82L55.0497 305.01C55.11 305.044 55.1602 305.093 55.1952 305.153C55.2302 305.213 55.2486 305.281 55.2486 305.35C55.2486 305.419 55.2302 305.487 55.1952 305.547C55.1602 305.607 55.11 305.656 55.0497 305.69L52.9097 306.76C52.845 306.796 52.7901 306.848 52.7497 306.91L51.4997 308.91C51.4657 308.97 51.4164 309.021 51.3566 309.056C51.2969 309.091 51.2289 309.109 51.1597 309.109C51.0904 309.109 51.0224 309.091 50.9627 309.056C50.9029 309.021 50.8536 308.97 50.8197 308.91L49.8197 306.8C49.7833 306.735 49.7318 306.68 49.6697 306.64L47.6697 305.44C47.6093 305.406 47.5591 305.357 47.5241 305.297C47.4891 305.237 47.4707 305.169 47.4707 305.1C47.4707 305.031 47.4891 304.963 47.5241 304.903C47.5591 304.843 47.6093 304.794 47.6697 304.76L49.8097 303.69C49.8785 303.66 49.935 303.607 49.9697 303.54L51.2197 301.54C51.2512 301.477 51.2997 301.424 51.3598 301.387C51.4198 301.349 51.489 301.33 51.5597 301.33C51.6303 301.33 51.6995 301.349 51.7595 301.387C51.8196 301.424 51.8681 301.477 51.8997 301.54L52.8997 303.65C52.9378 303.716 52.9888 303.774 53.0497 303.82V303.82Z" fill="#E0E0E0"/>
<path d="M265.69 452.52L267.69 453.72C267.751 453.754 267.801 453.803 267.836 453.863C267.871 453.923 267.889 453.991 267.889 454.06C267.889 454.129 267.871 454.197 267.836 454.257C267.801 454.317 267.751 454.366 267.69 454.4L265.55 455.47C265.484 455.504 265.428 455.556 265.39 455.62L264.14 457.62C264.106 457.68 264.057 457.731 263.997 457.766C263.938 457.801 263.869 457.819 263.8 457.819C263.731 457.819 263.663 457.801 263.603 457.766C263.544 457.731 263.494 457.68 263.46 457.62L262.46 455.51C262.424 455.445 262.372 455.39 262.31 455.35L260.31 454.15C260.25 454.116 260.2 454.067 260.165 454.007C260.13 453.947 260.111 453.879 260.111 453.81C260.111 453.741 260.13 453.673 260.165 453.613C260.2 453.553 260.25 453.504 260.31 453.47L262.45 452.4C262.519 452.37 262.576 452.317 262.61 452.25L263.86 450.25C263.894 450.19 263.944 450.139 264.003 450.104C264.063 450.069 264.131 450.051 264.2 450.051C264.27 450.051 264.337 450.069 264.397 450.104C264.457 450.139 264.506 450.19 264.54 450.25L265.54 452.36C265.574 452.427 265.626 452.482 265.69 452.52V452.52Z" fill="#E0E0E0"/>
<path d="M649.08 403.6L651.08 404.8C651.14 404.834 651.19 404.883 651.225 404.943C651.26 405.003 651.279 405.071 651.279 405.14C651.279 405.209 651.26 405.277 651.225 405.337C651.19 405.397 651.14 405.446 651.08 405.48L648.94 406.55C648.873 406.584 648.818 406.636 648.78 406.7L647.53 408.7C647.496 408.76 647.446 408.811 647.387 408.846C647.327 408.881 647.259 408.899 647.19 408.899C647.12 408.899 647.052 408.881 646.993 408.846C646.933 408.811 646.884 408.76 646.85 408.7L645.85 406.59C645.82 406.524 645.771 406.468 645.71 406.43L643.71 405.23C643.649 405.196 643.599 405.147 643.564 405.087C643.529 405.027 643.511 404.959 643.511 404.89C643.511 404.821 643.529 404.753 643.564 404.693C643.599 404.633 643.649 404.584 643.71 404.55L645.85 403.48C645.919 403.45 645.975 403.397 646.01 403.33L647.26 401.33C647.294 401.27 647.343 401.219 647.403 401.184C647.462 401.149 647.53 401.131 647.6 401.131C647.669 401.131 647.737 401.149 647.797 401.184C647.856 401.219 647.906 401.27 647.94 401.33L648.94 403.43C648.969 403.499 649.018 403.558 649.08 403.6V403.6Z" fill="#E0E0E0"/>
<path d="M606.54 451.1L608.54 452.3C608.6 452.334 608.65 452.383 608.685 452.443C608.72 452.503 608.739 452.571 608.739 452.64C608.739 452.709 608.72 452.777 608.685 452.837C608.65 452.897 608.6 452.946 608.54 452.98L606.4 454.05C606.331 454.08 606.275 454.133 606.24 454.2L604.99 456.2C604.956 456.26 604.907 456.311 604.847 456.346C604.787 456.381 604.719 456.399 604.65 456.399C604.581 456.399 604.513 456.381 604.453 456.346C604.393 456.311 604.344 456.26 604.31 456.2L603.31 454.09C603.273 454.028 603.222 453.977 603.16 453.94L601.16 452.74C601.099 452.706 601.049 452.657 601.014 452.597C600.979 452.537 600.961 452.469 600.961 452.4C600.961 452.331 600.979 452.263 601.014 452.203C601.049 452.143 601.099 452.094 601.16 452.06L603.3 450.99C603.365 450.954 603.419 450.902 603.46 450.84L604.71 448.84C604.744 448.78 604.793 448.729 604.853 448.694C604.913 448.659 604.981 448.641 605.05 448.641C605.119 448.641 605.187 448.659 605.247 448.694C605.307 448.729 605.356 448.78 605.39 448.84L606.39 450.95C606.428 451.011 606.479 451.062 606.54 451.1Z" fill="#E0E0E0"/>
<path d="M649.55 145.17L651.73 146.47C651.794 146.507 651.848 146.56 651.885 146.624C651.922 146.688 651.942 146.761 651.942 146.835C651.942 146.909 651.922 146.982 651.885 147.046C651.848 147.11 651.794 147.163 651.73 147.2L649.41 148.36C649.34 148.397 649.281 148.452 649.24 148.52L647.88 150.73C647.843 150.794 647.79 150.848 647.726 150.885C647.662 150.923 647.589 150.942 647.515 150.942C647.441 150.942 647.368 150.923 647.304 150.885C647.24 150.848 647.186 150.794 647.15 150.73L646 148.42C645.966 148.348 645.91 148.288 645.84 148.25L643.66 146.95C643.593 146.914 643.537 146.861 643.498 146.796C643.459 146.73 643.438 146.656 643.438 146.58C643.438 146.504 643.459 146.43 643.498 146.364C643.537 146.299 643.593 146.246 643.66 146.21L645.98 145.06C646.05 145.019 646.109 144.961 646.15 144.89L647.5 142.69C647.536 142.623 647.589 142.567 647.654 142.528C647.719 142.489 647.794 142.469 647.87 142.469C647.946 142.469 648.02 142.489 648.085 142.528C648.15 142.567 648.204 142.623 648.24 142.69L649.35 144.97C649.367 145.015 649.394 145.057 649.429 145.091C649.463 145.126 649.504 145.152 649.55 145.17V145.17Z" fill="#E0E0E0"/>
<path d="M579.761 183.21L580.761 183.86C580.792 183.876 580.819 183.9 580.837 183.93C580.856 183.96 580.866 183.995 580.866 184.03C580.866 184.065 580.856 184.1 580.837 184.13C580.819 184.16 580.792 184.184 580.761 184.2L579.701 184.71C579.665 184.726 579.637 184.754 579.621 184.79L579.021 185.79C579.003 185.821 578.978 185.847 578.947 185.865C578.916 185.884 578.881 185.893 578.846 185.893C578.81 185.893 578.775 185.884 578.744 185.865C578.713 185.847 578.688 185.821 578.671 185.79L578.121 184.7C578.102 184.666 578.074 184.638 578.041 184.62L577.041 183.97C577.009 183.954 576.983 183.93 576.964 183.9C576.945 183.87 576.936 183.835 576.936 183.8C576.936 183.765 576.945 183.73 576.964 183.7C576.983 183.67 577.009 183.646 577.041 183.63L578.111 183.12C578.144 183.102 578.172 183.074 578.191 183.04L578.791 182.04C578.806 182.008 578.831 181.982 578.861 181.963C578.891 181.945 578.925 181.935 578.961 181.935C578.996 181.935 579.031 181.945 579.061 181.963C579.091 181.982 579.115 182.008 579.131 182.04L579.691 183.13C579.705 183.163 579.73 183.191 579.761 183.21V183.21Z" fill="#C19F80"/>
<path d="M580.58 334.37L581.58 335.02C581.612 335.036 581.638 335.06 581.657 335.09C581.675 335.12 581.685 335.155 581.685 335.19C581.685 335.225 581.675 335.26 581.657 335.29C581.638 335.32 581.612 335.344 581.58 335.36L580.52 335.87C580.484 335.885 580.455 335.914 580.44 335.95L579.84 336.95C579.823 336.981 579.797 337.007 579.767 337.025C579.736 337.044 579.701 337.053 579.665 337.053C579.629 337.053 579.594 337.044 579.563 337.025C579.533 337.007 579.507 336.981 579.49 336.95L578.94 335.86C578.919 335.828 578.891 335.801 578.86 335.78L577.86 335.14C577.829 335.123 577.803 335.097 577.785 335.067C577.766 335.036 577.757 335.001 577.757 334.965C577.757 334.929 577.766 334.894 577.785 334.863C577.803 334.833 577.829 334.807 577.86 334.79L578.93 334.28C578.961 334.262 578.988 334.238 579.01 334.21L579.6 333.21C579.617 333.179 579.643 333.153 579.673 333.135C579.704 333.116 579.739 333.107 579.775 333.107C579.811 333.107 579.846 333.116 579.877 333.135C579.907 333.153 579.933 333.179 579.95 333.21L580.5 334.3C580.522 334.328 580.549 334.352 580.58 334.37V334.37Z" fill="#C19F80"/>
<path d="M622.11 265.1L624.11 266.3C624.171 266.334 624.221 266.383 624.256 266.443C624.291 266.503 624.309 266.571 624.309 266.64C624.309 266.709 624.291 266.777 624.256 266.837C624.221 266.897 624.171 266.946 624.11 266.98L622 268.05C621.931 268.083 621.872 268.135 621.83 268.2L620.59 270.2C620.556 270.26 620.507 270.311 620.447 270.346C620.387 270.381 620.319 270.399 620.25 270.399C620.181 270.399 620.113 270.381 620.053 270.346C619.994 270.311 619.944 270.26 619.91 270.2L618.91 268.1C618.881 268.034 618.832 267.978 618.77 267.94L616.77 266.74C616.71 266.706 616.66 266.657 616.625 266.597C616.59 266.537 616.571 266.469 616.571 266.4C616.571 266.331 616.59 266.263 616.625 266.203C616.66 266.143 616.71 266.094 616.77 266.06L618.91 264.99C618.979 264.96 619.036 264.907 619.07 264.84L620.32 262.84C620.354 262.78 620.404 262.729 620.463 262.694C620.523 262.659 620.591 262.641 620.66 262.641C620.729 262.641 620.797 262.659 620.857 262.694C620.917 262.729 620.966 262.78 621 262.84L622 264.95C622.021 265.01 622.059 265.062 622.11 265.1V265.1Z" fill="#C19F80"/>
<path d="M568.6 194.53L570.6 195.78C570.661 195.812 570.712 195.861 570.747 195.92C570.782 195.979 570.801 196.046 570.801 196.115C570.801 196.184 570.782 196.251 570.747 196.31C570.712 196.369 570.661 196.418 570.6 196.45L568.53 197.45C568.466 197.486 568.411 197.538 568.37 197.6L567.21 199.6C567.176 199.66 567.127 199.711 567.067 199.746C567.008 199.781 566.94 199.799 566.87 199.799C566.801 199.799 566.733 199.781 566.673 199.746C566.614 199.711 566.564 199.66 566.53 199.6L565.46 197.47C565.424 197.405 565.372 197.35 565.31 197.31L563.31 196.06C563.25 196.026 563.2 195.977 563.165 195.917C563.13 195.857 563.111 195.789 563.111 195.72C563.111 195.651 563.13 195.583 563.165 195.523C563.2 195.463 563.25 195.414 563.31 195.38L565.39 194.38C565.454 194.35 565.506 194.301 565.54 194.24L566.71 192.24C566.743 192.179 566.791 192.129 566.85 192.093C566.909 192.058 566.977 192.039 567.045 192.039C567.114 192.039 567.182 192.058 567.241 192.093C567.3 192.129 567.348 192.179 567.38 192.24L568.46 194.36C568.49 194.429 568.538 194.488 568.6 194.53Z" fill="#C19F80"/>
<path d="M93.5202 253.35L95.0502 254.35C95.0961 254.375 95.1345 254.412 95.1612 254.457C95.188 254.501 95.2021 254.553 95.2021 254.605C95.2021 254.657 95.188 254.709 95.1612 254.753C95.1345 254.798 95.0961 254.835 95.0502 254.86L93.4602 255.6C93.409 255.622 93.3668 255.661 93.3402 255.71L92.4302 257.2C92.4053 257.246 92.3685 257.284 92.3236 257.311C92.2787 257.338 92.2274 257.352 92.1752 257.352C92.1229 257.352 92.0717 257.338 92.0268 257.311C91.9819 257.284 91.9451 257.246 91.9202 257.2L91.1302 255.58C91.1013 255.528 91.0601 255.483 91.0102 255.45L89.4902 254.45C89.4445 254.424 89.4065 254.386 89.3801 254.34C89.3537 254.295 89.3398 254.243 89.3398 254.19C89.3398 254.137 89.3537 254.086 89.3801 254.04C89.4065 253.994 89.4445 253.956 89.4902 253.93L91.0702 253.2C91.1228 253.18 91.1657 253.141 91.1902 253.09L92.1002 251.6C92.1251 251.554 92.1619 251.516 92.2068 251.489C92.2517 251.462 92.3029 251.448 92.3552 251.448C92.4074 251.448 92.4587 251.462 92.5036 251.489C92.5485 251.516 92.5853 251.554 92.6102 251.6L93.4102 253.22C93.4356 253.272 93.4734 253.316 93.5202 253.35V253.35Z" fill="#C19F80"/>
<path d="M126.64 288L128.12 288.85C128.164 288.873 128.201 288.907 128.227 288.949C128.252 288.992 128.266 289.04 128.266 289.09C128.266 289.14 128.252 289.188 128.227 289.231C128.201 289.273 128.164 289.307 128.12 289.33L126.66 290.09C126.614 290.116 126.576 290.154 126.55 290.2L125.77 291.64C125.745 291.684 125.71 291.72 125.667 291.746C125.624 291.771 125.575 291.784 125.525 291.784C125.475 291.784 125.426 291.771 125.382 291.746C125.339 291.72 125.304 291.684 125.28 291.64L124.46 290.15C124.437 290.099 124.399 290.057 124.35 290.03L122.88 289.19C122.836 289.167 122.799 289.133 122.773 289.091C122.747 289.048 122.733 289 122.733 288.95C122.733 288.9 122.747 288.852 122.773 288.809C122.799 288.767 122.836 288.733 122.88 288.71L124.34 287.95C124.384 287.921 124.421 287.884 124.45 287.84L125.23 286.4C125.252 286.356 125.287 286.319 125.329 286.293C125.371 286.267 125.42 286.254 125.47 286.254C125.519 286.254 125.568 286.267 125.61 286.293C125.653 286.319 125.687 286.356 125.71 286.4L126.53 287.89C126.556 287.936 126.594 287.974 126.64 288Z" fill="#C19F80"/>
<path d="M170.94 173.31L172.42 174.16C172.461 174.185 172.496 174.22 172.519 174.262C172.543 174.304 172.556 174.352 172.556 174.4C172.556 174.448 172.543 174.496 172.519 174.538C172.496 174.58 172.461 174.615 172.42 174.64L170.96 175.4C170.913 175.42 170.874 175.455 170.85 175.5L170.06 176.95C170.037 176.994 170.003 177.031 169.96 177.057C169.918 177.083 169.869 177.096 169.82 177.096C169.77 177.096 169.722 177.083 169.679 177.057C169.637 177.031 169.603 176.994 169.58 176.95L168.76 175.45C168.734 175.404 168.696 175.366 168.65 175.34L167.17 174.5C167.126 174.476 167.09 174.44 167.064 174.397C167.039 174.354 167.025 174.305 167.025 174.255C167.025 174.205 167.039 174.156 167.064 174.113C167.09 174.07 167.126 174.034 167.17 174.01L168.63 173.25C168.672 173.227 168.707 173.193 168.73 173.15L169.52 171.7C169.543 171.656 169.577 171.619 169.619 171.593C169.662 171.567 169.71 171.554 169.76 171.554C169.809 171.554 169.858 171.567 169.9 171.593C169.943 171.619 169.977 171.656 170 171.7L170.82 173.19C170.854 173.236 170.894 173.276 170.94 173.31Z" fill="#C19F80"/>
<path d="M285.88 149L287.36 149.85C287.404 149.873 287.441 149.907 287.467 149.949C287.493 149.992 287.507 150.04 287.507 150.09C287.507 150.14 287.493 150.188 287.467 150.231C287.441 150.273 287.404 150.307 287.36 150.33L285.9 151.09C285.875 151.1 285.853 151.115 285.834 151.134C285.815 151.153 285.8 151.175 285.79 151.2L285 152.64C284.977 152.684 284.943 152.721 284.901 152.747C284.858 152.773 284.81 152.786 284.76 152.786C284.711 152.786 284.662 152.773 284.62 152.747C284.577 152.721 284.543 152.684 284.52 152.64L283.7 151.15C283.678 151.099 283.639 151.057 283.59 151.03L282.11 150.19C282.066 150.167 282.029 150.133 282.003 150.091C281.978 150.048 281.964 150 281.964 149.95C281.964 149.9 281.978 149.852 282.003 149.809C282.029 149.767 282.066 149.733 282.11 149.71L283.57 148.95C283.614 148.921 283.651 148.884 283.68 148.84L284.46 147.39C284.485 147.349 284.52 147.314 284.562 147.291C284.604 147.267 284.652 147.254 284.7 147.254C284.749 147.254 284.796 147.267 284.838 147.291C284.88 147.314 284.915 147.349 284.94 147.39L285.76 148.88C285.787 148.931 285.829 148.973 285.88 149V149Z" fill="#C19F80"/>
<path d="M115.841 293.52L118.771 295.2C118.866 295.244 118.948 295.314 119.004 295.403C119.061 295.492 119.092 295.595 119.092 295.7C119.092 295.805 119.061 295.908 119.004 295.997C118.948 296.086 118.866 296.156 118.771 296.2L115.881 297.71C115.787 297.755 115.71 297.829 115.661 297.92L114.101 300.79C114.06 300.889 113.991 300.974 113.902 301.034C113.813 301.094 113.708 301.126 113.601 301.126C113.493 301.126 113.388 301.094 113.299 301.034C113.21 300.974 113.141 300.889 113.101 300.79L111.471 297.79C111.419 297.695 111.343 297.616 111.251 297.56L108.311 295.88C108.211 295.839 108.126 295.77 108.066 295.681C108.007 295.592 107.975 295.487 107.975 295.38C107.975 295.273 108.007 295.168 108.066 295.079C108.126 294.99 108.211 294.921 108.311 294.88L111.211 293.37C111.299 293.321 111.372 293.249 111.421 293.16L112.981 290.29C113.025 290.194 113.095 290.113 113.184 290.056C113.272 289.999 113.375 289.969 113.481 289.969C113.586 289.969 113.689 289.999 113.778 290.056C113.866 290.113 113.937 290.194 113.981 290.29L115.611 293.29C115.664 293.387 115.744 293.467 115.841 293.52V293.52Z" fill="#C19F80"/>
<path d="M306.61 133.66L309.54 135.34C309.626 135.386 309.697 135.455 309.747 135.539C309.797 135.622 309.823 135.718 309.823 135.815C309.823 135.912 309.797 136.008 309.747 136.091C309.697 136.175 309.626 136.244 309.54 136.29L306.65 137.8C306.559 137.848 306.483 137.921 306.43 138.01L304.87 140.88C304.824 140.966 304.755 141.037 304.672 141.087C304.588 141.137 304.493 141.163 304.395 141.163C304.298 141.163 304.202 141.137 304.119 141.087C304.035 141.037 303.967 140.966 303.92 140.88L302.29 137.88C302.238 137.788 302.162 137.712 302.07 137.66L299.14 136C299.044 135.956 298.963 135.886 298.906 135.797C298.85 135.708 298.819 135.605 298.819 135.5C298.819 135.395 298.85 135.292 298.906 135.203C298.963 135.114 299.044 135.044 299.14 135L302.04 133.49C302.131 133.445 302.205 133.371 302.25 133.28L303.81 130.41C303.854 130.314 303.925 130.233 304.013 130.176C304.102 130.119 304.205 130.089 304.31 130.089C304.416 130.089 304.519 130.119 304.607 130.176C304.696 130.233 304.766 130.314 304.81 130.41L306.44 133.41C306.475 133.506 306.533 133.592 306.61 133.66Z" fill="#C19F80"/>
<path d="M264.68 419L267.61 420.68C267.696 420.726 267.767 420.795 267.817 420.878C267.867 420.962 267.893 421.058 267.893 421.155C267.893 421.252 267.867 421.348 267.817 421.431C267.767 421.515 267.696 421.584 267.61 421.63L264.71 423.14C264.619 423.185 264.546 423.259 264.5 423.35L263 426.22C262.956 426.316 262.886 426.397 262.797 426.454C262.709 426.511 262.606 426.541 262.5 426.541C262.395 426.541 262.292 426.511 262.203 426.454C262.115 426.397 262.044 426.316 262 426.22L260.37 423.22C260.318 423.128 260.242 423.052 260.15 423L257.22 421.32C257.125 421.276 257.043 421.206 256.987 421.117C256.93 421.028 256.899 420.925 256.899 420.82C256.899 420.715 256.93 420.612 256.987 420.523C257.043 420.434 257.125 420.364 257.22 420.32L260.12 418.81C260.214 418.765 260.291 418.691 260.34 418.6L261.9 415.73C261.947 415.644 262.015 415.573 262.099 415.523C262.182 415.473 262.278 415.447 262.375 415.447C262.473 415.447 262.568 415.473 262.652 415.523C262.735 415.573 262.804 415.644 262.85 415.73L264.48 418.73C264.52 418.837 264.59 418.93 264.68 419Z" fill="#C19F80"/>
<path d="M537.67 366.86L540.6 368.54C540.696 368.584 540.777 368.654 540.834 368.743C540.891 368.832 540.921 368.935 540.921 369.04C540.921 369.145 540.891 369.248 540.834 369.337C540.777 369.426 540.696 369.496 540.6 369.54L537.72 371C537.629 371.048 537.553 371.121 537.5 371.21L535.94 374.08C535.899 374.179 535.83 374.264 535.741 374.324C535.652 374.384 535.547 374.416 535.44 374.416C535.333 374.416 535.228 374.384 535.139 374.324C535.05 374.264 534.981 374.179 534.94 374.08L533.31 371.08C533.258 370.988 533.182 370.912 533.09 370.86L530.15 369.18C530.054 369.136 529.973 369.066 529.916 368.977C529.859 368.888 529.829 368.785 529.829 368.68C529.829 368.575 529.859 368.472 529.916 368.383C529.973 368.294 530.054 368.224 530.15 368.18L533.05 366.67C533.141 366.625 533.215 366.551 533.26 366.46L534.82 363.59C534.864 363.494 534.934 363.413 535.023 363.356C535.112 363.299 535.215 363.269 535.32 363.269C535.425 363.269 535.528 363.299 535.617 363.356C535.706 363.413 535.776 363.494 535.82 363.59L537.45 366.59C537.49 366.703 537.568 366.798 537.67 366.86V366.86Z" fill="#C19F80"/>
<path d="M497.32 149.69L499.23 150.79C499.287 150.82 499.334 150.864 499.367 150.919C499.4 150.973 499.417 151.036 499.417 151.1C499.417 151.164 499.4 151.227 499.367 151.281C499.334 151.336 499.287 151.38 499.23 151.41L497.34 152.41C497.282 152.443 497.233 152.492 497.2 152.55L496.2 154.42C496.169 154.476 496.123 154.523 496.068 154.556C496.012 154.588 495.949 154.606 495.885 154.606C495.821 154.606 495.758 154.588 495.702 154.556C495.647 154.523 495.601 154.476 495.57 154.42L494.51 152.49C494.479 152.43 494.43 152.381 494.37 152.35L492.46 151.25C492.403 151.22 492.356 151.176 492.323 151.121C492.29 151.067 492.272 151.004 492.272 150.94C492.272 150.876 492.29 150.813 492.323 150.759C492.356 150.704 492.403 150.66 492.46 150.63L494.35 149.63C494.41 149.599 494.459 149.55 494.49 149.49L495.49 147.62C495.521 147.564 495.567 147.517 495.622 147.484C495.678 147.452 495.741 147.434 495.805 147.434C495.869 147.434 495.932 147.452 495.988 147.484C496.043 147.517 496.089 147.564 496.12 147.62L497.18 149.55C497.211 149.61 497.26 149.659 497.32 149.69Z" fill="#C19F80"/>
<path d="M585.738 431.083C603.026 414.938 608.635 392.849 598.266 381.744C587.896 370.64 565.475 374.725 548.186 390.87C530.898 407.014 525.289 429.104 535.659 440.208C546.028 451.313 568.449 447.227 585.738 431.083Z" fill="#263238"/>
<path d="M580.15 424.85C564.42 439.59 544.39 444.32 533.09 436.65C533.805 437.946 534.682 439.145 535.7 440.22C546.1 451.3 568.53 447.17 585.8 431.01C603.07 414.85 608.63 392.76 598.23 381.69C597.329 380.721 596.323 379.855 595.23 379.11C601.78 390.9 595.72 410.28 580.15 424.85Z" fill="#455A64"/>
<path d="M285.763 103.646C297.748 99.9315 305.93 91.968 304.036 85.8592C302.143 79.7505 290.892 77.8097 278.907 81.5244C266.921 85.2391 258.74 93.2026 260.633 99.3114C262.527 105.42 273.778 107.361 285.763 103.646Z" fill="#263238"/>
<path d="M279.53 85C290.4 81.48 300.88 82.62 304.31 87.4C304.284 86.7752 304.163 86.1581 303.95 85.57C301.76 79.57 290.31 77.81 278.37 81.68C266.43 85.55 258.54 93.56 260.73 99.57C260.931 100.103 261.2 100.607 261.53 101.07C261.29 95.36 268.77 88.51 279.53 85Z" fill="#455A64"/>
<path d="M472.387 145.022C474.242 132.997 450.29 119.322 418.889 114.478C387.487 109.633 360.527 115.454 358.672 127.479C356.817 139.503 380.769 153.178 412.171 158.023C443.572 162.867 470.532 157.046 472.387 145.022Z" fill="#263238"/>
<path d="M419.341 121.31C447.871 126.17 469.341 138.15 470.551 149.19C471.3 148.208 471.853 147.091 472.181 145.9C475.321 134.08 452.501 120.17 421.181 114.84C389.861 109.51 361.961 114.76 358.811 126.58C358.545 127.618 358.467 128.695 358.581 129.76C365.651 120.31 391.121 116.5 419.341 121.31Z" fill="#455A64"/>
<path d="M413.08 134.36C420.25 138.11 425.08 145.19 431.71 149.81C436.11 152.86 441.45 154.97 444.41 159.43C444.12 156.82 442.33 154.65 440.55 152.72C435.521 147.294 429.896 142.453 423.78 138.29C420.64 136.16 417.16 134.14 413.37 134.16" fill="#455A64"/>
<g opacity="0.2">
<path d="M413.08 134.36C420.25 138.11 425.08 145.19 431.71 149.81C436.11 152.86 441.45 154.97 444.41 159.43C444.12 156.82 442.33 154.65 440.55 152.72C435.521 147.294 429.896 142.453 423.78 138.29C420.64 136.16 417.16 134.14 413.37 134.16" fill="black"/>
</g>
<path d="M447.2 37.58C447.174 36.4049 446.779 35.2679 446.07 34.33C444.99 33.14 443.18 33.02 441.58 33.14C434.76 33.65 426.08 43.76 421.91 49.14L422.61 79.23C441.29 69.49 448.8 52 447.2 37.58Z" fill="#455A64"/>
<g opacity="0.2">
<path d="M447.2 37.58C447.174 36.4049 446.779 35.2679 446.07 34.33C444.99 33.14 443.18 33.02 441.58 33.14C434.76 33.65 426.08 43.76 421.91 49.14L422.61 79.23C441.29 69.49 448.8 52 447.2 37.58Z" fill="black"/>
</g>
<path d="M417.66 99.38C421.143 98.1367 424.722 97.1802 428.36 96.52C431.92 95.94 435.49 94.45 439 93.62C443.54 92.56 447.78 90.51 452.14 88.83C456.5 87.15 461.14 85.83 465.79 86.35C462.301 84.7067 458.476 83.9019 454.62 84C450.781 84.1084 446.957 84.5129 443.18 85.21C437.92 86.05 432.56 86.92 427.8 89.31C423.04 91.7 418.65 94.14 417.66 99.38Z" fill="#455A64"/>
<g opacity="0.2">
<path d="M417.66 99.38C421.143 98.1367 424.722 97.1802 428.36 96.52C431.92 95.94 435.49 94.45 439 93.62C443.54 92.56 447.78 90.51 452.14 88.83C456.5 87.15 461.14 85.83 465.79 86.35C462.301 84.7067 458.476 83.9019 454.62 84C450.781 84.1084 446.957 84.5129 443.18 85.21C437.92 86.05 432.56 86.92 427.8 89.31C423.04 91.7 418.65 94.14 417.66 99.38Z" fill="black"/>
</g>
<path d="M393.431 100.4C388.821 93.64 379.581 91.67 371.631 89.7C382.681 99.2008 392.627 109.915 401.281 121.64C403.121 116.14 399.271 109 393.431 100.4Z" fill="#455A64"/>
<g opacity="0.2">
<path d="M393.431 100.4C388.821 93.64 379.581 91.67 371.631 89.7C382.681 99.2008 392.627 109.915 401.281 121.64C403.121 116.14 399.271 109 393.431 100.4Z" fill="black"/>
</g>
<path d="M399.39 142.39C389.88 139.64 382.04 128.78 372.66 125.72C383.48 125.21 397.01 131.72 399.39 142.39Z" fill="#455A64"/>
<g opacity="0.2">
<path d="M399.39 142.39C389.88 139.64 382.04 128.78 372.66 125.72C383.48 125.21 397.01 131.72 399.39 142.39Z" fill="black"/>
</g>
<path d="M408.86 120.44C414.218 120.167 419.56 121.236 424.4 123.55C429.219 125.865 433.838 128.574 438.21 131.65C438.62 128.21 436.61 124.99 434.69 122.1C433.311 119.878 431.724 117.792 429.95 115.87C428.171 113.932 425.874 112.543 423.33 111.87C421.784 111.555 420.189 111.556 418.643 111.872C417.096 112.189 415.63 112.814 414.33 113.71C411.831 115.291 409.915 117.643 408.87 120.41" fill="#455A64"/>
<path d="M400.11 155.48C400.11 155.48 404.83 123.23 410.06 105.48C415.29 87.73 420.36 67.48 420.36 67.48L422.42 68.04C422.42 68.04 411.42 103.17 407.08 125.04C402.74 146.91 404.21 156.65 404.21 156.65L400.11 155.58" fill="#455A64"/>
<path d="M445.281 35.32C445.22 35.4377 445.146 35.5483 445.061 35.65L444.381 36.56C443.781 37.33 442.931 38.47 441.891 39.89C439.811 42.72 437.061 46.72 434.321 51.32C431.581 55.92 429.391 60.26 427.901 63.44C427.151 65.03 426.561 66.32 426.161 67.22C425.971 67.64 425.821 67.98 425.691 68.22C425.646 68.344 425.586 68.4617 425.511 68.57C425.537 68.4427 425.577 68.3186 425.631 68.2C425.731 67.92 425.871 67.57 426.041 67.14C426.391 66.22 426.951 64.91 427.671 63.31C431.438 54.9436 436.135 47.0272 441.671 39.71C442.731 38.31 443.621 37.19 444.251 36.44C444.551 36.09 444.791 35.8 444.991 35.58C445.191 35.36 445.271 35.31 445.281 35.32Z" fill="#455A64"/>
<path d="M416.9 83.81C413.946 80.4478 411.904 76.3838 410.969 72.0067C410.034 67.6296 410.238 63.0858 411.56 58.81C413.35 52.65 417.25 47.35 421.31 42.39C421.617 41.9178 422.075 41.5648 422.61 41.39C423.001 41.3737 423.39 41.457 423.74 41.6319C424.089 41.8068 424.389 42.0676 424.61 42.39C429.05 47.39 430.33 54.57 430.01 61.27C429.901 65.7512 428.862 70.1608 426.96 74.22C424.747 78.4103 421.24 81.7738 416.96 83.81" fill="#455A64"/>
<path d="M416.9 83.81C416.922 83.6805 416.956 83.5533 417 83.43C417.09 83.15 417.2 82.8 417.34 82.38C417.65 81.47 418.07 80.14 418.55 78.49C419.785 74.1885 420.764 69.8175 421.48 65.4C422.31 60.22 422.8 55.49 423.13 52.07C423.29 50.39 423.43 49.07 423.52 48.07C423.574 47.6167 423.614 47.2467 423.64 46.96C423.64 46.71 423.69 46.58 423.71 46.58C423.723 46.7097 423.723 46.8403 423.71 46.97C423.71 47.26 423.71 47.63 423.71 48.08C423.66 49.08 423.57 50.43 423.43 52.14C423.16 55.57 422.72 60.31 421.87 65.51C421.174 69.9408 420.172 74.3179 418.87 78.61C418.35 80.26 417.87 81.61 417.55 82.47C417.39 82.89 417.25 83.23 417.15 83.47C417.085 83.5954 417.001 83.71 416.9 83.81V83.81Z" fill="#263238"/>
<g opacity="0.2">
<path d="M408.86 120.44C414.218 120.167 419.56 121.236 424.4 123.55C429.219 125.865 433.838 128.574 438.21 131.65C438.62 128.21 436.61 124.99 434.69 122.1C433.311 119.878 431.724 117.792 429.95 115.87C428.171 113.932 425.874 112.543 423.33 111.87C421.784 111.555 420.189 111.556 418.643 111.872C417.096 112.189 415.63 112.814 414.33 113.71C411.831 115.291 409.915 117.643 408.87 120.41" fill="black"/>
</g>
<path d="M432.18 146.71C432.18 146.71 432.08 146.64 431.91 146.49C431.74 146.34 431.48 146.1 431.19 145.84C430.58 145.26 429.7 144.41 428.58 143.4C428.03 142.89 427.41 142.34 426.73 141.77C426.05 141.2 425.34 140.58 424.56 139.96C422.892 138.596 421.113 137.375 419.24 136.31C417.393 135.214 415.305 134.589 413.16 134.49C412.223 134.447 411.284 134.47 410.35 134.56C409.54 134.662 408.741 134.832 407.96 135.07C406.829 135.417 405.746 135.907 404.74 136.53C404.03 136.97 403.66 137.26 403.64 137.24C403.62 137.22 403.72 137.15 403.89 137C404.139 136.789 404.4 136.592 404.67 136.41C405.665 135.737 406.749 135.205 407.89 134.83C408.678 134.569 409.488 134.382 410.31 134.27C411.259 134.16 412.216 134.126 413.17 134.17C415.37 134.253 417.514 134.882 419.41 136C421.304 137.071 423.097 138.309 424.77 139.7C425.54 140.34 426.27 140.95 426.93 141.55C427.59 142.15 428.2 142.69 428.75 143.22C429.85 144.22 430.7 145.13 431.29 145.74L431.96 146.44C432.041 146.524 432.115 146.614 432.18 146.71Z" fill="#455A64"/>
<path d="M393.55 135.73C393.749 135.812 393.935 135.923 394.1 136.06C394.579 136.399 395.036 136.766 395.47 137.16C396.914 138.464 398.157 139.974 399.16 141.64C400.16 143.303 400.905 145.106 401.37 146.99C401.512 147.56 401.619 148.137 401.69 148.72C401.726 148.935 401.726 149.155 401.69 149.37C401.63 149.37 401.49 148.47 401.09 147.06C400.037 143.363 398.026 140.01 395.26 137.34C394.25 136.32 393.51 135.78 393.55 135.73Z" fill="#455A64"/>
<path d="M381 97.22C381.131 97.2836 381.255 97.3607 381.37 97.45L382.37 98.17L383.99 99.33C384.63 99.78 385.29 100.33 386.05 100.99C389.962 104.285 393.419 108.085 396.33 112.29C397.905 114.619 399.322 117.051 400.57 119.57C401.581 121.635 402.482 123.751 403.27 125.91C403.94 127.75 404.42 129.26 404.74 130.3C404.9 130.79 405.02 131.19 405.12 131.5C405.169 131.64 405.206 131.784 405.23 131.93C405.161 131.801 405.101 131.667 405.05 131.53C404.95 131.26 404.79 130.86 404.61 130.34C404.25 129.34 403.74 127.82 403.04 125.99C402.34 124.16 401.42 121.99 400.28 119.72C399.023 117.222 397.607 114.807 396.04 112.49C393.176 108.317 389.804 104.518 386 101.18C385.25 100.56 384.6 99.95 384 99.49L382.42 98.28L381.42 97.51C381.268 97.4317 381.127 97.3342 381 97.22V97.22Z" fill="#455A64"/>
<path d="M424.64 119C424.386 118.924 424.142 118.82 423.91 118.69L423.07 118.29C422.75 118.14 422.35 118.03 421.93 117.86C419.72 117.045 417.322 116.878 415.02 117.38C413.756 117.65 412.544 118.123 411.43 118.78C410.508 119.3 409.646 119.92 408.86 120.63C408.145 121.3 407.477 122.019 406.86 122.78C406.96 122.532 407.095 122.3 407.26 122.09C407.678 121.497 408.153 120.948 408.68 120.45C409.454 119.679 410.321 119.007 411.26 118.45C412.86 117.481 414.665 116.9 416.53 116.752C418.394 116.604 420.268 116.895 422 117.6C422.42 117.78 422.82 117.91 423.14 118.09L423.95 118.54C424.198 118.665 424.43 118.82 424.64 119V119Z" fill="#455A64"/>
<path d="M443.64 87.63C443.503 87.6801 443.363 87.7203 443.22 87.75L442 88C440.94 88.25 439.41 88.62 437.53 89.14C435.65 89.66 433.43 90.34 431.02 91.24C428.396 92.1799 425.86 93.3477 423.44 94.73C422.179 95.4467 421.022 96.3315 420 97.36C419.05 98.36 418.14 99.36 417.29 100.36C415.765 102.057 414.33 103.833 412.99 105.68C412.098 106.929 411.283 108.232 410.55 109.58C410.02 110.58 409.78 111.09 409.75 111.08C409.784 110.935 409.834 110.794 409.9 110.66C410.01 110.4 410.18 110.01 410.42 109.52C411.116 108.133 411.908 106.797 412.79 105.52C414.101 103.642 415.52 101.843 417.04 100.13C417.89 99.13 418.8 98.13 419.75 97.13C420.79 96.0952 421.964 95.2039 423.24 94.48C425.682 93.0897 428.246 91.9249 430.9 91C433.33 90.12 435.57 89.47 437.45 89C439.33 88.53 440.89 88.18 441.96 88L443.2 87.77L443.64 87.63Z" fill="#455A64"/>
<path d="M408.581 115.48C408.542 115.198 408.542 114.912 408.581 114.63C408.581 114.01 408.581 113.23 408.581 112.3C408.609 109.745 408.486 107.19 408.211 104.65C407.909 102.112 407.455 99.5938 406.851 97.11C406.641 96.21 406.471 95.45 406.331 94.85C406.253 94.5719 406.199 94.2875 406.171 94C406.299 94.2577 406.396 94.5296 406.461 94.81C406.621 95.34 406.841 96.1 407.101 97.05C408.468 102.016 409.051 107.164 408.831 112.31C408.831 113.31 408.741 114.08 408.691 114.63C408.681 114.916 408.644 115.201 408.581 115.48Z" fill="#455A64"/>
<path d="M412.331 93.28C412.78 89.5475 412.439 85.7623 411.331 82.17C409.828 77.2426 407.264 72.7043 403.819 68.8742C400.374 65.044 396.132 62.015 391.391 60C396.464 72.2133 401.517 84.4367 406.551 96.67L408.191 103.01C410.57 100.289 412.02 96.881 412.331 93.28V93.28Z" fill="#455A64"/>
<g opacity="0.2">
<path d="M412.331 93.28C412.78 89.5475 412.439 85.7623 411.331 82.17C409.828 77.2426 407.264 72.7043 403.819 68.8742C400.374 65.044 396.132 62.015 391.391 60C396.464 72.2133 401.517 84.4367 406.551 96.67L408.191 103.01C410.57 100.289 412.02 96.881 412.331 93.28V93.28Z" fill="black"/>
</g>
<path d="M223.645 441.908C234.994 430.591 229.91 407.093 212.291 389.425C194.672 371.756 171.189 366.607 159.84 377.925C148.491 389.242 153.574 412.739 171.193 430.408C188.813 448.076 212.296 453.225 223.645 441.908Z" fill="#263238"/>
<path d="M177.551 424.3C161.471 408.22 155.801 387.3 163.481 375.09C162.145 375.894 160.912 376.857 159.811 377.96C148.491 389.32 153.621 412.82 171.261 430.47C188.901 448.12 212.371 453.21 223.681 441.86C224.679 440.869 225.559 439.765 226.301 438.57C214.101 445.92 193.461 440.21 177.551 424.3Z" fill="#455A64"/>
<path d="M195.54 402.62L209.78 387.45L211.48 389.14C211.48 389.14 199.48 403.14 199.23 406.49L195.54 402.62Z" fill="#455A64"/>
<path d="M172.321 393.88L152.811 423.01L182.371 452.58L211.751 430.17L172.321 393.88Z" fill="#C19F80"/>
<path d="M182.56 452.42C179.89 455.04 171.18 450.48 163.1 442.24C155.02 434 150.65 425.24 153.32 422.58C155.99 419.92 164.7 424.52 172.78 432.76C180.86 441 185.24 449.8 182.56 452.42Z" fill="#C19F80"/>
<g opacity="0.3">
<path d="M182.56 452.42C179.89 455.04 171.18 450.48 163.1 442.24C155.02 434 150.65 425.24 153.32 422.58C155.99 419.92 164.7 424.52 172.78 432.76C180.86 441 185.24 449.8 182.56 452.42Z" fill="black"/>
</g>
<path d="M212.63 432.4C210.19 434.62 197.84 432.72 184.36 420.32C170.88 407.92 163.25 398.59 170.12 391.32C175.77 385.32 187.05 389.89 200.53 402.32C214.01 414.75 220.65 425.1 212.63 432.4Z" fill="#C19F80"/>
<path d="M182.37 452.58C182.523 452.435 182.683 452.298 182.85 452.17L184.26 451.02L189.67 446.72L208.86 431.63C209.13 431.233 209.308 430.782 209.38 430.307C209.453 429.833 209.419 429.349 209.28 428.89C209.07 427.869 208.734 426.878 208.28 425.94C207.317 423.956 206.169 422.068 204.85 420.3C198.873 412.406 191.543 405.634 183.2 400.3C181.188 399.032 179.058 397.961 176.84 397.1C175.797 396.691 174.71 396.406 173.6 396.25C173.1 396.133 172.581 396.128 172.079 396.237C171.577 396.346 171.106 396.566 170.7 396.88V396.88L157.8 415.86L154.14 421.16L153.14 422.55C153.033 422.713 152.913 422.867 152.78 423.01C152.866 422.835 152.967 422.668 153.08 422.51L154 421.08L157.54 415.71L170.27 396.71C170.694 396.292 171.241 396.022 171.83 395.94C172.4 395.855 172.98 395.855 173.55 395.94C174.699 396.099 175.826 396.387 176.91 396.8C179.159 397.666 181.319 398.748 183.36 400.03C191.784 405.324 199.188 412.088 205.22 420C206.553 421.798 207.715 423.716 208.69 425.73C209.145 426.71 209.48 427.74 209.69 428.8C209.843 429.331 209.873 429.889 209.777 430.433C209.682 430.977 209.464 431.493 209.14 431.94V431.94L189.83 446.88L184.34 451.07L182.88 452.17C182.723 452.322 182.553 452.46 182.37 452.58V452.58Z" fill="#263238"/>
<path d="M273 391.18V396H255.2V373.85H272.6V378.7H261.42V382.44H271.27V387.13H261.42V391.18H273Z" fill="#263238"/>
<path d="M286.19 390.14H282.76V396H276.49V373.85H286.63C292.68 373.85 296.48 376.99 296.48 382.06C296.539 383.527 296.156 384.977 295.383 386.225C294.609 387.473 293.48 388.46 292.14 389.06L296.92 396.06H290.21L286.19 390.14ZM286.25 378.8H282.76V385.29H286.25C288.85 385.29 290.14 384.09 290.14 382.06C290.14 380.03 288.85 378.8 286.25 378.8Z" fill="#263238"/>
<path d="M309.621 390.14H306.201V396H299.931V373.85H310.071C316.121 373.85 319.921 376.99 319.921 382.06C319.979 383.527 319.597 384.977 318.823 386.225C318.05 387.473 316.92 388.46 315.581 389.06L320.361 396.06H313.651L309.621 390.14ZM309.691 378.8H306.201V385.29H309.691C312.291 385.29 313.581 384.09 313.581 382.06C313.581 380.03 312.291 378.8 309.691 378.8Z" fill="#263238"/>
<path d="M322.23 384.94C322.23 378.29 327.46 373.41 334.55 373.41C341.64 373.41 346.88 378.29 346.88 384.94C346.88 391.59 341.65 396.47 334.55 396.47C327.45 396.47 322.23 391.59 322.23 384.94ZM340.54 384.94C340.54 381.11 337.91 378.6 334.54 378.6C331.17 378.6 328.54 381.11 328.54 384.94C328.54 388.77 331.16 391.28 334.54 391.28C337.92 391.28 340.54 388.77 340.54 384.94Z" fill="#263238"/>
<path d="M359.86 390.14H356.44V396H350.17V373.85H360.3C366.35 373.85 370.16 376.99 370.16 382.06C370.216 383.526 369.832 384.976 369.059 386.223C368.286 387.47 367.158 388.458 365.82 389.06L370.6 396.06H363.88L359.86 390.14ZM359.92 378.8H356.44V385.29H359.92C362.52 385.29 363.82 384.09 363.82 382.06C363.82 380.03 362.52 378.8 359.92 378.8Z" fill="#263238"/>
<path d="M412 382.06C412 387.06 408.2 390.23 402.15 390.23H398.28V396H392V373.85H402.14C408.23 373.85 412 377 412 382.06ZM405.66 382.06C405.66 380 404.37 378.8 401.77 378.8H398.28V385.29H401.77C404.4 385.29 405.69 384.09 405.69 382.06H405.66Z" fill="#263238"/>
<path d="M428.821 391.72H419.441L417.701 396H411.301L421.091 373.82H427.261L437.081 396H430.561L428.821 391.72ZM427.001 387.1L424.151 380L421.301 387.1H427.001Z" fill="#263238"/>
<path d="M453.4 384.47H458.94V393.65C456.19 395.503 452.946 396.486 449.63 396.47C442.56 396.47 437.4 391.69 437.4 384.94C437.4 378.19 442.56 373.41 449.75 373.41C453.9 373.41 457.26 374.84 459.45 377.47L455.45 381.08C454.792 380.293 453.966 379.663 453.034 379.234C452.102 378.805 451.086 378.589 450.06 378.6C448.379 378.592 446.763 379.252 445.569 380.436C444.374 381.619 443.698 383.229 443.69 384.91C443.682 386.591 444.343 388.207 445.526 389.402C446.709 390.596 448.319 391.272 450 391.28C451.17 391.285 452.326 391.035 453.39 390.55L453.4 384.47Z" fill="#263238"/>
<path d="M480.731 391.18V396H462.931V373.85H480.321V378.7H469.141V382.44H479.001V387.13H469.151V391.18H480.731Z" fill="#263238"/>
<path d="M271.94 322.7H218.21V296.38L269.39 171.9H300.09V296.38H313.4V322.7H300.09V356.12H271.94V322.7ZM271.94 296.38V224.53H271.43L243.8 296.38H271.94Z" fill="#C19F80"/>
<g opacity="0.3">
<path d="M271.94 322.7H218.21V296.38L269.39 171.9H300.09V296.38H313.4V322.7H300.09V356.12H271.94V322.7ZM271.94 296.38V224.53H271.43L243.8 296.38H271.94Z" fill="black"/>
</g>
<path d="M259.13 322.7H205.4V296.38L256.57 171.9H287.28V296.38H300.58V322.7H287.28V356.12H259.13V322.7ZM259.13 296.38V224.53H258.62L231 296.38H259.13Z" fill="#C19F80"/>
<path d="M335.891 346.65C328.557 338.577 324.891 327.17 324.891 312.43V215.59C324.891 200.85 328.557 189.443 335.891 181.37C343.224 173.297 353.801 169.263 367.621 169.27C381.441 169.27 392.017 173.303 399.351 181.37C406.684 189.437 410.351 200.843 410.351 215.59V312.43C410.351 327.17 406.684 338.577 399.351 346.65C392.017 354.723 381.441 358.757 367.621 358.75C353.801 358.75 343.224 354.717 335.891 346.65ZM382.201 314.28V213.74C382.201 201.64 377.341 195.59 367.621 195.59C357.901 195.59 353.027 201.64 353.001 213.74V314.28C353.001 326.38 357.864 332.43 367.591 332.43C377.317 332.43 382.187 326.38 382.201 314.28Z" fill="#C19F80"/>
<g opacity="0.3">
<path d="M399.351 181.37C392.017 173.31 381.441 169.277 367.621 169.27C353.801 169.263 343.224 173.297 335.891 181.37C328.557 189.45 324.891 200.857 324.891 215.59V312.43C324.891 327.17 328.557 338.577 335.891 346.65C343.224 354.723 353.801 358.757 367.621 358.75C381.441 358.75 392.017 354.717 399.351 346.65C406.684 338.583 410.351 327.177 410.351 312.43V215.59C410.351 200.85 406.684 189.443 399.351 181.37ZM382.201 314.28C382.201 326.38 377.341 332.43 367.621 332.43C357.901 332.43 353.031 324.84 353.031 314.28V213.74C353.031 202.74 357.901 195.59 367.621 195.59C377.341 195.59 382.201 201.59 382.201 213.74V314.28Z" fill="black"/>
</g>
<path d="M323.08 346.65C315.747 338.577 312.08 327.17 312.08 312.43V215.59C312.08 200.85 315.747 189.443 323.08 181.37C330.413 173.297 340.987 169.263 354.8 169.27C368.62 169.27 379.197 173.303 386.53 181.37C393.863 189.437 397.53 200.843 397.53 215.59V312.43C397.53 327.17 393.863 338.577 386.53 346.65C379.197 354.723 368.62 358.757 354.8 358.75C340.993 358.75 330.42 354.717 323.08 346.65ZM369.39 314.27V213.74C369.39 201.64 364.527 195.59 354.8 195.59C345.073 195.59 340.213 201.64 340.22 213.74V314.27C340.22 326.383 345.08 332.437 354.8 332.43C364.52 332.423 369.383 326.37 369.39 314.27Z" fill="#C19F80"/>
<path d="M473.201 322.7H419.471V296.38L470.641 171.9H501.351V296.38H514.651V322.7H501.351V356.12H473.201V322.7ZM473.201 296.38V224.54H472.691L445.051 296.38H473.201Z" fill="#C19F80"/>
<g opacity="0.3">
<path d="M473.201 322.7H419.471V296.38L470.641 171.9H501.351V296.38H514.651V322.7H501.351V356.12H473.201V322.7ZM473.201 296.38V224.54H472.691L445.051 296.38H473.201Z" fill="black"/>
</g>
<path d="M460.39 322.7H406.65V296.38L457.83 171.9H488.53V296.38H501.84V322.7H488.53V356.12H460.39V322.7ZM460.39 296.38V224.53H459.87L432.24 296.38H460.39Z" fill="#C19F80"/>
<path d="M562.719 326.625C575.923 323.961 579.859 288.262 571.509 246.891C563.16 205.519 545.687 174.141 532.483 176.806C519.279 179.471 515.344 215.169 523.693 256.541C532.043 297.912 549.515 329.29 562.719 326.625Z" fill="#263238"/>
<path d="M564.28 248.57C556.67 210.86 541.48 181.46 528.85 178.57C529.905 177.714 531.15 177.121 532.48 176.84C545.68 174.18 563.15 205.56 571.48 246.93C579.81 288.3 575.89 324 562.68 326.66C561.488 326.893 560.26 326.866 559.08 326.58C569.34 318.56 571.8 285.87 564.28 248.57Z" fill="#455A64"/>
<path d="M696.23 177.27L710.37 156.62C710.37 156.62 736.11 164.06 739.09 160.5L700.09 131.64L676.69 162.9L696.23 177.27Z" fill="#263238"/>
<path d="M697.051 149.39C696.761 148.997 696.626 148.511 696.67 148.025C696.715 147.538 696.935 147.085 697.291 146.75C697.671 146.445 698.154 146.297 698.64 146.338C699.125 146.379 699.577 146.605 699.901 146.97C700.209 147.386 700.352 147.902 700.303 148.417C700.253 148.932 700.013 149.411 699.631 149.76C699.199 150.031 698.68 150.127 698.18 150.028C697.68 149.93 697.237 149.644 696.941 149.23" fill="#E0E0E0"/>
<path d="M700.05 131.64L697.82 134.88L736.09 161.34C736.09 161.34 738.39 161.87 739.09 160.5L700.05 131.64Z" fill="#455A64"/>
<path d="M710.86 157.29C710.99 157.09 710.1 156.29 709.62 154.99C709.14 153.69 709.23 152.51 709 152.46C708.77 152.41 708.23 153.72 708.85 155.29C709.47 156.86 710.77 157.49 710.86 157.29Z" fill="white"/>
<path d="M716.21 158.62C716.39 158.47 715.8 157.53 715.75 156.25C715.7 154.97 716.14 153.97 715.94 153.84C715.74 153.71 714.83 154.7 714.94 156.29C715.05 157.88 716.07 158.8 716.21 158.62Z" fill="white"/>
<path d="M722.16 155.44C722.01 155.27 721.041 156.02 720.761 157.44C720.481 158.86 721.061 159.92 721.261 159.82C721.461 159.72 721.321 158.76 721.571 157.61C721.821 156.46 722.33 155.6 722.16 155.44Z" fill="white"/>
<path d="M707.11 161.63C707.11 161.4 706.11 161.02 705.11 160.15C704.11 159.28 703.5 158.32 703.28 158.41C703.06 158.5 703.36 159.77 704.58 160.78C705.8 161.79 707.1 161.85 707.11 161.63Z" fill="white"/>
<path d="M682.66 261.18L696.93 240.62C696.93 240.62 722.62 248.22 725.63 244.62L686.75 215.53L663.21 246.7L682.66 261.18Z" fill="#263238"/>
<path d="M683.65 233.31C683.367 232.915 683.236 232.43 683.284 231.946C683.332 231.462 683.555 231.012 683.91 230.68C684.292 230.376 684.776 230.23 685.261 230.273C685.747 230.316 686.198 230.544 686.52 230.91C686.825 231.329 686.963 231.846 686.91 232.361C686.856 232.875 686.614 233.352 686.23 233.7C685.797 233.969 685.276 234.062 684.776 233.96C684.276 233.857 683.834 233.568 683.54 233.15" fill="#E0E0E0"/>
<path d="M686.75 215.58L684.5 218.81L722.62 245.5C722.62 245.5 724.91 246.04 725.62 244.67L686.75 215.58Z" fill="#455A64"/>
<path d="M697.41 241.29C697.55 241.1 696.66 240.29 696.18 238.99C695.7 237.69 695.81 236.51 695.58 236.45C695.35 236.39 694.81 237.71 695.41 239.28C696.01 240.85 697.32 241.49 697.41 241.29Z" fill="white"/>
<path d="M702.75 242.66C702.93 242.5 702.35 241.57 702.31 240.28C702.27 238.99 702.71 238.01 702.52 237.87C702.33 237.73 701.4 238.72 701.52 240.32C701.64 241.92 702.61 242.83 702.75 242.66Z" fill="white"/>
<path d="M708.72 239.51C708.58 239.34 707.6 240.09 707.31 241.51C707.02 242.93 707.6 244 707.8 243.9C708 243.8 707.86 242.83 708.12 241.68C708.38 240.53 708.89 239.67 708.72 239.51Z" fill="white"/>
<path d="M693.64 245.62C693.69 245.38 692.64 244.99 691.64 244.12C690.64 243.25 690.04 242.28 689.82 242.37C689.6 242.46 689.9 243.73 691.11 244.75C692.32 245.77 693.62 245.83 693.64 245.62Z" fill="white"/>
<path d="M535.39 276.08C536.72 276.08 655.3 241.92 663.55 234.5C671.8 227.08 705.48 168.32 705.48 168.32L681.56 148.82L640 203L567 209.59C567 209.59 536.22 207.49 530.86 218.5L530.3 235L535.39 276.08Z" fill="#263238"/>
<path d="M535.39 276.08C537.15 276.13 590.12 335.08 606.71 338.43C623.3 341.78 631.65 330.33 637.32 323.43C644.54 314.73 693.7 252 693.7 252L669 231.6L615 289.13L582.49 244.36L554.15 241.7L536.88 257L535.39 276.08Z" fill="#263238"/>
<path d="M610.16 294.64C610.16 294.64 610.21 294.55 610.34 294.39L610.93 293.72L613.23 291.15L621.76 281.77L634.46 267.91L641.98 259.75C644.63 256.96 647.37 254.07 650.17 251.1L668.86 231.43L669.02 231.27L669.19 231.41L687 246.25L692 250.46L693.31 251.59C693.465 251.714 693.609 251.851 693.74 252C693.571 251.897 693.41 251.78 693.26 251.65L691.9 250.58L686.83 246.47L668.92 231.78H669.25C663.74 237.62 657.37 244.35 650.61 251.49L642.41 260.14L634.86 268.28L622 282L613.35 291.26L610.97 293.76L610.34 294.4L610.16 294.64Z" fill="#455A64"/>
<path d="M609.48 254.17C608.982 254.394 608.467 254.578 607.94 254.72L603.7 256C600.12 257.11 595.16 258.6 589.7 260.37L585.7 261.69C584.47 262.061 583.264 262.509 582.09 263.03C580.126 263.951 578.545 265.528 577.62 267.49C577.024 268.832 576.597 270.243 576.35 271.69C576.284 272.23 576.18 272.765 576.04 273.29C576.014 273.148 576.014 273.002 576.04 272.86C576.04 272.58 576.04 272.18 576.15 271.66C576.323 270.171 576.703 268.714 577.28 267.33C578.203 265.257 579.834 263.581 581.88 262.6C583.067 262.055 584.29 261.591 585.54 261.21L589.54 259.87C594.98 258.1 599.96 256.67 603.54 255.65C605.35 255.14 606.81 254.75 607.83 254.48C608.369 254.324 608.921 254.22 609.48 254.17V254.17Z" fill="#455A64"/>
<path d="M519.42 225.37C519.486 225.201 519.569 225.04 519.67 224.89C519.76 224.73 519.87 224.54 520 224.34L520.53 223.63C521.719 222.175 523.118 220.905 524.68 219.86C528.57 217.11 534.68 214.5 541.68 212.57C547.628 210.913 553.723 209.845 559.88 209.38C561.747 209.251 563.62 209.228 565.49 209.31C566.15 209.31 566.66 209.4 567.01 209.45C567.186 209.462 567.36 209.492 567.53 209.54C567.53 209.59 566.8 209.54 565.48 209.54C564.16 209.54 562.26 209.54 559.91 209.78C553.793 210.348 547.74 211.459 541.82 213.1C534.9 215.02 528.82 217.55 524.94 220.19C523.384 221.199 521.968 222.409 520.73 223.79L520.17 224.46L519.8 224.98C519.55 225.23 519.44 225.38 519.42 225.37Z" fill="#455A64"/>
<path d="M568.51 309C568.363 308.926 568.226 308.836 568.1 308.73L566.98 307.86L562.89 304.64C559.43 301.93 554.53 298.36 549.07 294.45C544.403 291.119 539.923 287.534 535.65 283.71C534.03 282.22 532.73 281 531.86 280.13L530.86 279.13C530.739 279.02 530.631 278.896 530.54 278.76C530.54 278.76 530.69 278.85 530.94 279.06C531.19 279.27 531.58 279.61 532 279.99L535.9 283.43C539.22 286.32 543.9 290.12 549.39 294.03C554.88 297.94 559.73 301.56 563.13 304.35C564.83 305.75 566.2 306.89 567.13 307.7L568.19 308.64C568.31 308.747 568.418 308.868 568.51 309V309Z" fill="#455A64"/>
<path d="M202.073 267.482C217.638 225.895 219.496 188.156 206.224 183.188C192.952 178.221 169.574 207.906 154.009 249.492C138.444 291.078 136.586 328.818 149.858 333.786C163.13 338.753 186.508 309.068 202.073 267.482Z" fill="#263238"/>
<path d="M161.25 252.41C175.43 214.5 196.11 186.49 209.71 185.59C208.757 184.525 207.564 183.702 206.23 183.19C192.96 178.19 169.58 207.91 154.02 249.5C138.46 291.09 136.59 328.82 149.86 333.79C151.063 334.227 152.344 334.404 153.62 334.31C144.32 324.27 147.21 289.9 161.25 252.41Z" fill="#455A64"/>
<path d="M22.2998 158.8C22.2998 158.8 18.7598 149.8 17.2298 146.51C15.6998 143.22 16.0298 133.26 17.0498 131.45C17.351 130.975 17.5176 130.428 17.5317 129.866C17.5458 129.304 17.4069 128.749 17.1298 128.26C17.1298 128.26 11.9098 118.53 14.3498 116.13L15.7698 115.97C15.7698 115.97 20.9998 126.41 21.1798 126.62C21.3598 126.83 22.4998 126.88 22.8598 125.06C23.2198 123.24 22.3498 117.84 22.3498 117.84C22.3498 117.84 20.3498 114.4 20.2198 112.04C20.2671 111.52 20.4201 111.015 20.6695 110.555C20.9188 110.096 21.2592 109.693 21.6698 109.37L22.3798 108.82C22.3798 108.82 26.7698 116.76 27.0198 118.7C27.2698 120.64 28.0698 124.85 28.0698 124.85L28.6798 124.36L28.7298 114.62C28.7298 114.62 26.5298 106.38 28.1998 104.62C29.8698 102.86 30.0298 104.33 30.0298 104.33C30.0298 104.33 33.1698 112.74 33.3998 114.87C33.4998 115.74 33.5898 124.11 33.5898 124.11L34.9398 123.55L35.4098 115.73C35.4098 115.73 33.8298 107.97 36.1998 107.18L38.0898 107.12C38.0898 107.12 39.8898 117.33 40.0898 117.81C40.2898 118.29 38.7098 129.94 38.7098 129.94L39.1898 131.04L40.5598 129.18C41.2532 127.729 42.4308 126.566 43.8898 125.89C46.6198 124.4 47.8098 125.48 47.8098 125.48L44.3898 131.56C44.3898 131.56 41.2698 138.67 39.9998 140.31C38.0834 142.452 35.9708 144.411 33.6898 146.16C33.0098 146.54 33.7798 149.69 33.7798 149.69L34.8498 151.89L22.2998 158.8Z" fill="#FFBF9D"/>
<path d="M36.0002 135C36.0002 135.11 34.9002 135.08 33.2002 135.49C30.9926 136.003 28.9563 137.082 27.2909 138.619C25.6255 140.157 24.3882 142.1 23.7003 144.26C23.1603 145.92 23.1002 147.02 23.0002 147.01C22.893 146.046 22.9954 145.071 23.3002 144.15C23.9064 141.851 25.1511 139.771 26.8902 138.15C29.7102 135.91 32.0002 135.05 33.1202 135.04C34.0673 134.829 35.0477 134.816 36.0002 135Z" fill="#FF9A6C"/>
<path d="M36.46 123.84C36.46 124.04 32.35 123.37 27.52 124.64C22.69 125.91 19.39 128.41 19.29 128.24C19.9022 127.581 20.6184 127.027 21.41 126.6C25.1271 124.311 29.4503 123.203 33.81 123.42C34.71 123.42 35.6043 123.562 36.46 123.84Z" fill="#FF9A6C"/>
<path d="M22.2998 158.8C22.6398 159.63 39.8598 211.74 47.2998 217.34C54.7398 222.94 103.92 237.34 103.92 237.34L111.65 211.14L63.5498 196.09L33.6898 146.09L22.2998 158.8Z" fill="#FFBF9D"/>
<path d="M114.83 203.99L77.69 197.66L69.75 229.96L112.72 239.79L114.83 203.99Z" fill="#C19F80"/>
<path d="M138.16 206.56L135.98 149.56C135.9 135.37 127.57 123.56 113.39 124.06L112.08 124.18C105.74 124.772 99.8545 127.728 95.5933 132.459C91.3322 137.191 89.007 143.353 89.0798 149.72C89.2198 162.02 89.5298 175.61 90.2098 182.15C91.6298 195.7 105.38 196.56 105.38 196.56L109.6 213.41L114.4 215.01L138.16 206.56Z" fill="#FFBF9D"/>
<path d="M105.33 196.59C111.594 195.995 117.555 193.618 122.51 189.74C122.51 189.74 120.01 200.66 106.37 200.68L105.33 196.59Z" fill="#FF9A6C"/>
<path d="M95.8695 160.78C95.9079 161.278 96.1377 161.741 96.5106 162.073C96.8836 162.405 97.3706 162.58 97.8695 162.56C98.1168 162.558 98.361 162.505 98.5878 162.407C98.8146 162.308 99.0194 162.165 99.19 161.986C99.3606 161.807 99.4936 161.596 99.5811 161.365C99.6686 161.134 99.7089 160.887 99.6995 160.64C99.6474 160.147 99.4139 159.69 99.0443 159.36C98.6748 159.029 98.1955 158.847 97.6995 158.85C97.4518 158.854 97.2073 158.907 96.9804 159.007C96.7536 159.106 96.5489 159.25 96.3784 159.43C96.208 159.61 96.0751 159.822 95.9877 160.054C95.9003 160.285 95.8601 160.532 95.8695 160.78V160.78Z" fill="#263238"/>
<path d="M92.4599 155.48C92.7299 155.71 94.0899 154.48 96.1799 154.3C98.2699 154.12 99.8899 155.01 100.09 154.74C100.29 154.47 99.8999 154.18 99.1899 153.74C98.2299 153.199 97.127 152.965 96.0299 153.07C94.9475 153.169 93.9248 153.611 93.1099 154.33C92.5099 154.9 92.3399 155.37 92.4599 155.48Z" fill="#263238"/>
<path d="M112.34 160.41C112.6 160.64 113.97 159.41 116.06 159.23C118.15 159.05 119.76 159.95 119.97 159.67C120.07 159.55 119.78 159.12 119.07 158.67C118.11 158.128 117.006 157.897 115.91 158.01C114.826 158.107 113.8 158.544 112.98 159.26C112.39 159.83 112.21 160.31 112.34 160.41Z" fill="#263238"/>
<path d="M106.93 170.78C105.801 170.533 104.645 170.432 103.49 170.48C102.95 170.48 102.49 170.41 102.32 170.06C102.225 169.514 102.299 168.953 102.53 168.45L103.73 164.25C105.38 158.25 106.53 153.39 106.29 153.33C106.05 153.27 104.51 158.05 102.86 164.02C102.46 165.49 102.08 166.89 101.72 168.24C101.447 168.912 101.418 169.659 101.64 170.35C101.741 170.537 101.884 170.697 102.057 170.818C102.231 170.94 102.431 171.019 102.64 171.05C102.942 171.088 103.248 171.088 103.55 171.05C104.684 171.101 105.819 171.011 106.93 170.78V170.78Z" fill="#263238"/>
<path d="M110.6 154.92C110.93 155.43 112.9 154.68 115.36 154.41C117.82 154.14 119.9 154.32 120.1 153.75C120.18 153.48 119.72 153.03 118.82 152.68C117.624 152.26 116.346 152.129 115.09 152.3C113.835 152.441 112.631 152.88 111.58 153.58C110.79 154.14 110.45 154.68 110.6 154.92Z" fill="#263238"/>
<path d="M91.9998 150.19C92.4698 150.63 94.1298 150 96.1698 149.82C98.2098 149.64 99.9698 149.82 100.33 149.33C100.48 149.07 100.17 148.62 99.3298 148.23C98.2472 147.751 97.0556 147.571 95.8798 147.71C94.7038 147.811 93.5772 148.229 92.6198 148.92C91.9998 149.46 91.7598 150 91.9998 150.19Z" fill="#263238"/>
<path d="M135.79 159.73C136.01 159.61 144.86 156.12 145.41 165.41C145.96 174.7 136.52 173.35 136.49 173.09C136.46 172.83 135.79 159.73 135.79 159.73Z" fill="#FFBF9D"/>
<path d="M139.12 169.39C139.12 169.39 139.29 169.5 139.57 169.61C139.965 169.747 140.398 169.729 140.78 169.56C141.78 169.14 142.47 167.56 142.42 165.85C142.394 165.053 142.193 164.271 141.83 163.56C141.723 163.275 141.549 163.02 141.323 162.817C141.097 162.613 140.825 162.467 140.53 162.39C140.341 162.352 140.145 162.382 139.975 162.473C139.806 162.564 139.673 162.712 139.6 162.89C139.49 163.16 139.6 163.34 139.52 163.36C139.44 163.38 139.31 163.22 139.36 162.83C139.399 162.595 139.515 162.381 139.69 162.22C139.937 162.017 140.251 161.913 140.57 161.93C140.956 161.983 141.323 162.134 141.634 162.369C141.946 162.603 142.192 162.914 142.35 163.27C142.793 164.053 143.04 164.931 143.07 165.83C143.12 167.71 142.27 169.52 140.94 169.99C140.696 170.077 140.435 170.107 140.177 170.08C139.919 170.052 139.671 169.967 139.45 169.83C139.15 169.62 139.09 169.41 139.12 169.39Z" fill="#FF9A6C"/>
<path d="M113.56 171.74C113.23 171.74 113.33 173.87 111.56 175.47C109.79 177.07 107.56 176.94 107.56 177.24C107.56 177.38 108.09 177.64 109.05 177.62C110.304 177.58 111.505 177.098 112.44 176.26C113.333 175.458 113.879 174.338 113.96 173.14C114 172.24 113.7 171.72 113.56 171.74Z" fill="#263238"/>
<path d="M69.6396 138.46C69.7822 137.896 70.1416 137.411 70.6396 137.11C71.7013 136.552 72.8911 136.283 74.0896 136.33C77.0449 136.088 79.9067 135.178 82.4596 133.67C81.5103 133.278 80.6293 132.738 79.8496 132.07C79.0292 131.392 78.4094 130.503 78.057 129.498C77.7045 128.494 77.6329 127.412 77.8496 126.37C77.8839 126.173 77.963 125.987 78.081 125.826C78.1989 125.664 78.3524 125.532 78.5296 125.44C79.1196 125.21 79.6796 125.77 80.1296 126.22C80.7123 126.914 81.4708 127.439 82.3257 127.74C83.1806 128.041 84.1006 128.106 84.9896 127.93C86.228 127.777 87.415 127.342 88.4596 126.66L88.5596 126.53C89.0196 126 89.4596 125.53 89.8996 125C93.1796 121.32 96.0396 118.73 99.0596 117.29C103.48 115.18 111.06 113.97 115.84 114.92C120.62 115.87 125.13 119.44 126.09 124.25C128.61 121.84 132.59 121.62 135.91 122.72H135.98C139.66 123.78 141.98 127.45 143.23 131.06C143.3 131.26 143.37 131.46 143.43 131.65C144.764 133.519 146.526 135.042 148.57 136.09C148.93 136.27 149.35 136.49 149.41 136.89C149.414 137.091 149.364 137.29 149.266 137.466C149.167 137.642 149.024 137.788 148.85 137.89C148.022 138.561 147.055 139.04 146.02 139.29C146.396 140.145 146.848 140.965 147.37 141.74C147.82 142.4 148.37 143.2 148.04 143.94C147.892 144.214 147.665 144.436 147.388 144.577C147.111 144.718 146.798 144.771 146.49 144.73C145.878 144.628 145.292 144.404 144.77 144.07L146.15 146.88C144.858 147.19 143.511 147.19 142.22 146.88C141.67 150.36 141.49 156.76 140.75 159.14C138.28 159.33 137.67 159.14 136.45 159.59C134.87 160.23 135.66 163.04 133.52 162.36C132.42 162.01 130.52 158.07 130.11 157.01C127.295 149.917 126.036 142.302 126.42 134.68C124.827 133.178 122.959 131.996 120.92 131.2L121.09 131.34C117.21 130.25 112.83 129.22 109.33 131.23C106.62 132.79 105.15 135.79 103.21 138.23C99.5096 142.86 95.2096 145.48 89.2796 146.1C88.9996 150.24 89.2796 156.96 89.2796 160.8L85.5396 153.34C85.2496 152.91 84.9996 152.47 84.7596 152.03L84.6796 151.89C84.2996 151.18 83.9296 150.47 83.4696 149.78C83.0516 150.199 82.4928 150.449 81.9015 150.48C81.3102 150.511 80.7284 150.321 80.269 149.947C79.8095 149.574 79.5051 149.043 79.4146 148.458C79.3242 147.873 79.4543 147.275 79.7796 146.78C80.0733 146.313 80.4376 145.895 80.8596 145.54C80.419 146.024 79.8602 146.386 79.2379 146.589C78.6156 146.792 77.9511 146.831 77.3096 146.7C76.6755 146.544 76.1097 146.185 75.6982 145.677C75.2867 145.17 75.052 144.543 75.0296 143.89C75.0554 143.447 75.1962 143.019 75.4382 142.647C75.6802 142.275 76.0151 141.973 76.4096 141.77C74.7338 142.013 73.0235 141.748 71.4996 141.01C70.3796 140.53 69.3896 139.69 69.6396 138.46Z" fill="#263238"/>
<path d="M121.819 126.08C122.328 126.43 122.809 126.818 123.259 127.24C124.413 128.476 125.229 129.988 125.629 131.63C125.931 132.755 126.119 133.907 126.189 135.07C126.269 136.32 126.249 137.67 126.249 139.07C126.209 140.562 126.265 142.055 126.419 143.54C126.512 144.327 126.663 145.105 126.869 145.87C127.044 146.691 127.422 147.454 127.969 148.09C128.223 148.352 128.543 148.54 128.895 148.634C129.248 148.727 129.619 148.722 129.969 148.62C130.633 148.46 131.222 148.079 131.639 147.54C132.311 146.477 132.69 145.256 132.739 144H132.449C132.927 145.001 133.547 145.927 134.289 146.75C134.999 147.513 135.979 147.968 137.019 148.02C137.505 148.044 137.987 147.93 138.409 147.69C138.803 147.457 139.114 147.108 139.299 146.69C139.483 146.311 139.56 145.889 139.519 145.47C139.469 145.09 139.293 144.738 139.019 144.47L138.879 144.61C139.747 145.484 140.79 146.166 141.939 146.61C142.339 146.76 142.649 146.85 142.869 146.91L143.199 146.97C143.097 146.919 142.99 146.879 142.879 146.85C142.573 146.753 142.273 146.639 141.979 146.51C140.849 146.041 139.827 145.343 138.979 144.46L138.839 144.6C139.077 144.87 139.226 145.207 139.266 145.565C139.305 145.923 139.233 146.285 139.059 146.6C138.881 146.966 138.6 147.272 138.249 147.48C137.863 147.688 137.428 147.788 136.989 147.77C136.019 147.7 135.111 147.264 134.449 146.55C133.734 145.742 133.138 144.837 132.679 143.86L132.459 143.43L132.399 143.91C132.355 145.11 131.992 146.276 131.349 147.29C130.981 147.783 130.455 148.136 129.859 148.29C129.568 148.369 129.262 148.369 128.97 148.292C128.679 148.215 128.413 148.062 128.199 147.85C127.694 147.25 127.349 146.53 127.199 145.76C126.986 145.014 126.836 144.251 126.749 143.48C126.593 142.009 126.53 140.529 126.559 139.05C126.559 137.63 126.559 136.28 126.469 135.05C126.388 133.872 126.184 132.705 125.859 131.57C125.435 129.902 124.576 128.377 123.369 127.15C122.915 126.71 122.391 126.349 121.819 126.08V126.08Z" fill="#455A64"/>
<path d="M80.5498 141.92C80.5498 141.92 80.5498 141.92 80.6598 142.01L81.0198 142.23C81.2093 142.361 81.4101 142.475 81.6198 142.57C81.8933 142.718 82.1775 142.845 82.4698 142.95C84.3445 143.669 86.3697 143.906 88.3598 143.64C91.312 143.256 94.0902 142.027 96.3598 140.1C99.1059 137.721 101.335 134.804 102.91 131.53C103.8 129.82 104.5 128.09 105.3 126.47C106.014 124.901 106.951 123.443 108.08 122.14C109.097 120.964 110.393 120.063 111.85 119.52C112.514 119.292 113.208 119.168 113.91 119.15C114.555 119.15 115.197 119.234 115.82 119.4C117.73 119.925 119.372 121.149 120.42 122.83C120.772 123.463 121.051 124.134 121.25 124.83C121.25 124.83 121.25 124.83 121.25 124.69C121.25 124.55 121.25 124.45 121.16 124.28C121.016 123.758 120.811 123.254 120.55 122.78C120.115 122.026 119.557 121.35 118.9 120.78C118.023 120.04 117.001 119.492 115.9 119.17C115.249 118.989 114.576 118.898 113.9 118.9C113.175 118.909 112.457 119.031 111.77 119.26C110.262 119.807 108.917 120.725 107.86 121.93C106.708 123.25 105.751 124.728 105.02 126.32C104.21 127.95 103.51 129.68 102.63 131.38C101.07 134.61 98.8763 137.494 96.1798 139.86C93.9474 141.768 91.2173 142.999 88.3098 143.41C86.3547 143.688 84.3614 143.489 82.4998 142.83C81.8327 142.565 81.1816 142.261 80.5498 141.92V141.92Z" fill="#455A64"/>
<path d="M78.9395 136C79.093 136.128 79.2649 136.233 79.4494 136.31C79.9272 136.565 80.4256 136.779 80.9395 136.95C81.6967 137.221 82.4764 137.425 83.2694 137.56C84.2602 137.728 85.265 137.798 86.2694 137.77C87.2557 137.733 88.2365 137.606 89.1994 137.39C89.9861 137.206 90.7556 136.955 91.4995 136.64C92.0007 136.434 92.4854 136.19 92.9494 135.91C93.1268 135.818 93.2915 135.704 93.4395 135.57C93.4395 135.52 92.6795 135.95 91.4395 136.43C90.7018 136.713 89.9427 136.937 89.1694 137.1C87.2727 137.509 85.317 137.567 83.3995 137.27C82.6169 137.153 81.8446 136.976 81.0894 136.74C79.7194 136.35 78.9995 136 78.9395 136Z" fill="#455A64"/>
<path d="M180.38 310.84L181.32 306.34C169.997 301.324 159.713 294.231 151 285.43L101 234.79L102.3 220.26L126.94 197.19C131.007 194.853 135.555 193.479 140.236 193.174C144.916 192.869 149.604 193.641 153.94 195.43C171.24 202.29 178.57 212 198.76 235.54C206.76 244.87 202.27 237.07 210.1 242.13C210.1 242.13 205.19 268.8 195.9 285.33C189.06 297.43 180.38 310.84 180.38 310.84Z" fill="#C19F80"/>
<path d="M106.15 240.17C105.446 239.382 104.829 238.52 104.31 237.6C102.942 235.449 101.697 233.222 100.58 230.93C99.4523 228.653 98.4508 226.316 97.5797 223.93C97.1845 222.961 96.8831 221.956 96.6797 220.93C97.17 221.863 97.5879 222.833 97.9297 223.83C98.6697 225.63 99.7297 228.1 101.03 230.77C102.33 233.44 103.63 235.77 104.6 237.48C105.178 238.339 105.696 239.238 106.15 240.17Z" fill="#263238"/>
<g opacity="0.3">
<path d="M193.3 273.61C194.088 268.092 193.515 262.465 191.63 257.22C188.49 249.04 180.38 237.54 180.38 237.54L177.6 240.17L193.3 273.61Z" fill="black"/>
</g>
<path d="M149.999 323.89L167.999 276.73L158.499 264.87L140.579 242.87C140.579 242.87 127.789 236.23 121.659 226.43C120.652 224.6 120.1 222.553 120.051 220.464C120.003 218.375 120.458 216.305 121.379 214.43C126.979 203.85 138.579 199.65 150.119 202.82L160.279 209.47C160.279 209.47 193.809 262.03 193.279 272.15C192.899 279.31 164.629 327.73 164.629 327.73L149.999 323.89Z" fill="#FFBF9D"/>
<path d="M151.26 321.89L131.26 323.61C130.221 323.699 129.216 324.027 128.325 324.568C127.433 325.109 126.679 325.849 126.12 326.73L117.12 340.86C117.12 340.86 120.69 342.52 123.05 339.86C125.41 337.2 129.23 331.66 129.23 331.66L127.53 347.4C127.53 347.4 132.15 347.85 132.92 344.34C133.516 341.274 133.85 338.163 133.92 335.04L138.43 350.04C138.43 350.04 143.32 348.43 141.74 342.77C140.74 339.2 139.68 335.53 139.68 335.53L145.17 345.26C145.17 345.26 149.17 344.91 148.17 341.26C147.48 338.85 145.36 334.07 145.36 334.07C145.36 334.07 156.88 334.94 159.17 334.07C162.29 332.94 165.48 326.32 165.48 326.32L151.26 321.89Z" fill="#FFBF9D"/>
<path d="M133.519 200.05C133.519 200.05 116.729 209.05 118.519 221.69C120.309 234.33 134.799 240.89 134.799 240.89L153.609 261L183.109 235.37L156.269 202" fill="#C19F80"/>
<path d="M156.27 202C156.27 202 156.27 202 156.41 202.14L156.8 202.59L158.27 204.36L163.78 211.11L183.29 235.19L183.44 235.37L183.27 235.52L153.94 261.05L153.79 261.17L153.59 261.35L153.42 261.15L134.66 241.02L134.74 241.08C131.311 239.378 128.164 237.159 125.41 234.5C122.865 232.102 120.857 229.191 119.52 225.96C119.27 225.17 118.94 224.42 118.77 223.63C118.6 222.84 118.41 222.08 118.33 221.31C118.16 219.815 118.234 218.302 118.55 216.83C119.161 214.241 120.32 211.813 121.95 209.71C124.252 206.757 127.002 204.182 130.1 202.08C131.17 201.34 132.02 200.82 132.61 200.48L133.28 200.11C133.43 200.03 133.51 200 133.52 200.01L133.3 200.15L132.65 200.56C132.08 200.92 131.24 201.46 130.19 202.22C127.146 204.355 124.448 206.945 122.19 209.9C120.605 211.971 119.483 214.358 118.9 216.9C118.6 218.33 118.536 219.799 118.71 221.25C118.79 222 119.01 222.75 119.16 223.52C119.31 224.29 119.65 225.02 119.89 225.79C122.32 231.79 127.99 237.11 134.89 240.61H134.94C140.75 246.82 147.1 253.61 153.72 260.72H153.35L153.49 260.59L183 235.2V235.53C175 225.53 168.34 217.21 163.64 211.32L158.22 204.49L156.81 202.68C156.66 202.48 156.54 202.33 156.45 202.2C156.381 202.142 156.321 202.074 156.27 202V202Z" fill="#263238"/>
<path d="M135.62 325.75C135.62 325.84 134.97 325.82 133.98 326.1C132.703 326.445 131.563 327.176 130.717 328.192C129.87 329.209 129.358 330.462 129.25 331.78C129.15 332.78 129.25 333.44 129.2 333.45C128.936 332.928 128.825 332.342 128.88 331.76C128.897 330.338 129.403 328.965 130.314 327.872C131.225 326.779 132.484 326.033 133.88 325.76C134.447 325.59 135.051 325.587 135.62 325.75V325.75Z" fill="#FF9A6C"/>
<path d="M137.46 328.1C137.46 328.17 137.07 328.46 136.39 328.95C136.06 329.2 135.66 329.49 135.26 329.85C134.823 330.197 134.479 330.647 134.26 331.16C133.971 332.177 133.892 333.242 134.03 334.29C134.119 334.734 134.162 335.187 134.16 335.64C134.1 335.64 133.84 335.19 133.66 334.35C133.41 333.235 133.448 332.076 133.77 330.98C134.03 330.382 134.444 329.865 134.97 329.48C135.361 329.169 135.775 328.888 136.21 328.64C136.93 328.22 137.43 328 137.46 328.1Z" fill="#FF9A6C"/>
<path d="M145.83 330C145.325 330.234 144.777 330.36 144.22 330.37C143.22 330.51 141.76 330.59 140.86 331.75C140.483 332.249 140.212 332.819 140.062 333.426C139.913 334.032 139.888 334.663 139.99 335.28C140.17 336.23 140.5 336.79 140.42 336.83C140.011 336.434 139.735 335.92 139.63 335.36C139.463 334.684 139.45 333.979 139.592 333.297C139.734 332.615 140.027 331.973 140.45 331.42C140.944 330.811 141.626 330.386 142.39 330.21C142.981 330.076 143.584 330.006 144.19 330C144.735 329.943 145.285 329.943 145.83 330V330Z" fill="#FF9A6C"/>
<path d="M161.38 325.75C159.54 325.322 157.74 324.736 156 324C154.54 323.44 153.23 322.91 152.29 322.52C151.772 322.328 151.27 322.094 150.79 321.82C150.79 321.61 153.27 322.4 156.19 323.51C157.986 324.092 159.724 324.842 161.38 325.75V325.75Z" fill="#FF9A6C"/>
<g opacity="0.3">
<path d="M206.339 236.7C206.339 236.7 202.749 268.11 195.719 280.91C188.689 293.71 182.899 304.67 182.899 304.67L182.399 307.09C182.399 307.09 196.679 284.56 199.259 278.96C203.4 270.013 206.708 260.704 209.139 251.15C211.719 240.27 212.139 238.38 212.059 238.38C211.979 238.38 207.999 235.39 206.339 236.7Z" fill="black"/>
</g>
</svg>
