<svg width="20" height="20" viewBox="0 0 20 20" fill="none" xmlns="http://www.w3.org/2000/svg">
<path d="M17.5 15H5C4.77899 15 4.56702 15.0878 4.41074 15.2441C4.25446 15.4003 4.16667 15.6123 4.16667 15.8333C4.16667 16.0543 4.25446 16.2663 4.41074 16.4226C4.56702 16.5789 4.77899 16.6667 5 16.6667H17.5V18.3333H5C4.33696 18.3333 3.70107 18.0699 3.23223 17.6011C2.76339 17.1322 2.5 16.4964 2.5 15.8333V3.33332C2.5 2.8913 2.67559 2.46737 2.98816 2.15481C3.30072 1.84225 3.72464 1.66666 4.16667 1.66666H17.5V15ZM4.16667 13.375C4.30167 13.3475 4.44083 13.3333 4.58333 13.3333H15.8333V3.33332H4.16667V13.375ZM13.3333 7.49999H6.66667V5.83332H13.3333V7.49999Z" fill="white"/>
</svg>
