<svg width="60" height="60" viewBox="0 0 60 60" fill="none" xmlns="http://www.w3.org/2000/svg">
<path d="M48.1875 17.4375L35.0625 4.3125C34.6875 3.9375 34.3125 3.75 33.75 3.75H15C12.9375 3.75 11.25 5.4375 11.25 7.5V52.5C11.25 54.5625 12.9375 56.25 15 56.25H45C47.0625 56.25 48.75 54.5625 48.75 52.5V18.75C48.75 18.1875 48.5625 17.8125 48.1875 17.4375ZM33.75 8.25L44.25 18.75H33.75V8.25ZM45 52.5H15V7.5H30V18.75C30 20.8125 31.6875 22.5 33.75 22.5H45V52.5Z" fill="#1CB5A3"/>
<path d="M18.75 41.25H41.25V45H18.75V41.25ZM18.75 30H41.25V33.75H18.75V30Z" fill="#1CB5A3"/>
</svg>
