<svg width="37" height="37" viewBox="0 0 37 37" fill="none" xmlns="http://www.w3.org/2000/svg">
<path d="M18.5 12.6419C15.2744 12.6419 12.6421 15.2743 12.6421 18.4998C12.6421 21.7254 15.2744 24.3577 18.5 24.3577C21.7255 24.3577 24.3579 21.7254 24.3579 18.4998C24.3579 15.2743 21.7255 12.6419 18.5 12.6419ZM36.0693 18.4998C36.0693 16.0741 36.0913 13.6703 35.955 11.2489C35.8188 8.43636 35.1772 5.94027 33.1206 3.88363C31.0595 1.8226 28.5678 1.18539 25.7553 1.04916C23.3296 0.912928 20.9257 0.934901 18.5044 0.934901C16.0786 0.934901 13.6748 0.912928 11.2534 1.04916C8.44088 1.18539 5.94479 1.82699 3.88815 3.88363C1.82711 5.94467 1.18991 8.43636 1.05368 11.2489C0.917445 13.6746 0.939417 16.0785 0.939417 18.4998C0.939417 20.9212 0.917445 23.3294 1.05368 25.7508C1.18991 28.5633 1.83151 31.0594 3.88815 33.1161C5.94918 35.1771 8.44088 35.8143 11.2534 35.9505C13.6792 36.0868 16.083 36.0648 18.5044 36.0648C20.9301 36.0648 23.3339 36.0868 25.7553 35.9505C28.5678 35.8143 31.0639 35.1727 33.1206 33.1161C35.1816 31.055 35.8188 28.5633 35.955 25.7508C36.0957 23.3294 36.0693 20.9256 36.0693 18.4998ZM18.5 27.513C13.5122 27.513 9.48678 23.4876 9.48678 18.4998C9.48678 13.512 13.5122 9.48666 18.5 9.48666C23.4878 9.48666 27.5131 13.512 27.5131 18.4998C27.5131 23.4876 23.4878 27.513 18.5 27.513ZM27.8823 11.2225C26.7177 11.2225 25.7773 10.2821 25.7773 9.11752C25.7773 7.95297 26.7177 7.01254 27.8823 7.01254C29.0468 7.01254 29.9873 7.95297 29.9873 9.11752C29.9876 9.39404 29.9334 9.66792 29.8277 9.92347C29.7221 10.179 29.567 10.4112 29.3715 10.6067C29.176 10.8023 28.9438 10.9573 28.6882 11.063C28.4327 11.1686 28.1588 11.2228 27.8823 11.2225Z" fill="#C19F80"/>
</svg>
