<svg width="45" height="31" viewBox="0 0 45 31" fill="none" xmlns="http://www.w3.org/2000/svg">
<path d="M44.0637 5.42379C43.8089 4.51485 43.3125 3.69194 42.6274 3.04254C41.9229 2.37317 41.0595 1.89436 40.1187 1.65129C36.5974 0.723165 22.4899 0.723165 22.4899 0.723165C16.6087 0.656251 10.7288 0.950555 4.88366 1.60441C3.94276 1.86544 3.08096 2.35495 2.37491 3.02942C1.68116 3.69692 1.17866 4.52004 0.916157 5.42192C0.285582 8.81894 -0.0207952 12.2682 0.00115722 15.7232C-0.0213428 19.175 0.284282 22.6232 0.916157 26.0244C1.17303 26.9225 1.67366 27.7419 2.36928 28.4038C3.06491 29.0657 3.93116 29.5438 4.88366 29.7969C8.45178 30.7232 22.4899 30.7232 22.4899 30.7232C28.3787 30.7902 34.266 30.4959 40.1187 29.8419C41.0595 29.5989 41.9229 29.12 42.6274 28.4507C43.3123 27.8014 43.808 26.9784 44.0618 26.0694C44.7088 22.6737 45.0234 19.223 45.0012 15.7663C45.0498 12.2949 44.7356 8.82797 44.0637 5.42192V5.42379ZM18.0049 22.1432V9.30504L29.7424 15.725L18.0049 22.1432Z" fill="#C19F80"/>
</svg>
